<?xml version="1.0" encoding="UTF-8"?>
<svg version="1.1" xmlns="http://www.w3.org/2000/svg" width="512" height="512">
<path d="M0 0 C1.51235937 -0.00967334 1.51235937 -0.00967334 3.05527145 -0.0195421 C4.15584339 -0.01644489 5.25641533 -0.01334769 6.39033794 -0.01015663 C8.15237396 -0.0169533 8.15237396 -0.0169533 9.95000666 -0.02388728 C13.20696069 -0.03435766 16.46377588 -0.03585708 19.72074139 -0.03349853 C23.23482954 -0.0330903 26.74888477 -0.04413004 30.26295757 -0.05361366 C37.1464455 -0.07022356 44.02989917 -0.07572321 50.91340546 -0.07683842 C56.50914214 -0.07778892 62.10486752 -0.0818993 67.70060062 -0.08823967 C83.56774849 -0.10585221 99.43486931 -0.11507854 115.30202702 -0.11357872 C116.15735295 -0.11349881 117.01267887 -0.1134189 117.89392376 -0.11333656 C118.75029482 -0.1132548 119.60666589 -0.11317304 120.48898759 -0.1130888 C134.36694414 -0.11227594 148.24479214 -0.13141354 162.1227173 -0.1596133 C176.37463836 -0.18834434 190.62650649 -0.20215346 204.87845725 -0.20042574 C212.87897302 -0.19976191 220.87937501 -0.20525133 228.87986469 -0.22678185 C235.69188013 -0.24499658 242.50373021 -0.24933866 249.31575946 -0.235763 C252.79023326 -0.22923468 256.26438984 -0.22911074 259.73883343 -0.2464695 C263.50861317 -0.26187648 267.27755892 -0.25264237 271.04732037 -0.23720741 C272.14120014 -0.24749454 273.23507992 -0.25778167 274.36210757 -0.26838052 C282.32012163 -0.19634308 287.61643301 1.41342525 293.65930462 6.63226891 C301.01063692 15.20882326 302.26066267 22.9398409 302.22180462 33.88226891 C302.2379179 34.79750328 302.25403118 35.71273766 302.27063274 36.65570641 C302.27444824 41.93634895 301.90968349 45.71300576 298.90930462 50.25726891 C294.47927411 53.21062258 289.02940987 52.40697959 283.90930462 52.25726891 C283.91551044 52.99527292 283.92171625 53.73327694 283.92811012 54.49364471 C283.9612434 61.45428626 283.77545719 68.36338365 283.37439251 75.31146812 C283.31747738 76.34411797 283.26056225 77.37676781 283.20192242 78.44071007 C283.01514355 81.81464631 282.82363667 85.18829512 282.63196087 88.56195641 C282.49957544 90.93263895 282.36745417 93.30333625 282.23558331 95.67404747 C281.95933501 100.62817353 281.68092251 105.58217129 281.4007597 110.5360775 C281.04358888 116.85215815 280.6902479 123.16844522 280.33834457 129.48482132 C280.00011173 135.55227798 279.6598111 141.61961822 279.31946087 147.68695641 C279.25568815 148.82734241 279.19191544 149.96772842 279.12621021 151.14267159 C278.77991853 157.3232538 278.42782198 163.50342514 278.06157589 169.68285942 C277.96507801 171.31432319 277.86998274 172.94587103 277.77680874 174.577528 C277.66379797 176.53641654 277.54172294 178.49477652 277.4188261 180.45306969 C277.3568655 181.46765251 277.2949049 182.48223534 277.2310667 183.5275631 C276.41759509 190.42874351 274.09204405 195.55244512 268.97180462 200.25726891 C262.61702508 205.21283093 257.80819167 205.53334651 249.90930462 205.25726891 C249.90930462 207.89726891 249.90930462 210.53726891 249.90930462 213.25726891 C251.35949993 213.17025719 251.35949993 213.17025719 252.83899212 213.08148766 C262.42898782 212.74916107 269.68904757 213.42658328 277.00305462 220.19476891 C282.95702075 226.63676505 284.77588847 232.54519446 284.90930462 241.25726891 C284.29387235 247.51416368 281.38679482 253.77977871 276.90930462 258.25726891 C276.72934395 259.75092368 276.60925252 261.25187535 276.51477337 262.75336266 C273.88213815 300.30051983 260.98609499 335.61398285 231.94934368 360.96869469 C220.81234221 370.30575011 220.81234221 370.30575011 216.90930462 372.25726891 C217.69556095 378.67460886 218.48874561 385.09107594 219.28430462 391.50726891 C219.47322277 393.03426414 219.47322277 393.03426414 219.66595745 394.59210777 C221.43535512 408.86398883 223.27911617 423.12423674 225.1902914 437.37772942 C225.53428636 439.94463266 225.87730009 442.51166518 226.22000408 445.07874107 C226.44926822 446.79547884 226.67854679 448.51221468 226.90783978 450.22894859 C227.02140127 451.0792905 227.13496277 451.92963242 227.25196552 452.80574226 C227.93457794 457.91086736 228.6245292 463.01493984 229.31942654 468.1184063 C229.75898824 471.35874089 230.19201235 474.59992721 230.6235075 477.84134483 C230.82618591 479.35310218 231.03161298 480.86449413 231.24008465 482.37546349 C234.51025563 506.10288068 234.51025563 506.10288068 231.33322906 510.37818241 C228.01365365 512.95159981 225.84385796 512.76298043 221.66639996 512.7719326 C220.93555421 512.77887813 220.20470847 512.78582366 219.45171589 512.79297966 C217.00180323 512.81128187 214.55285543 512.80097699 212.10290813 512.79071617 C210.34689896 512.79777307 208.59089587 512.80651711 206.83490276 512.81682396 C202.0641955 512.83935397 197.29381942 512.83636976 192.52307916 512.82750249 C188.5418309 512.82239755 184.56064516 512.82968117 180.57940334 512.83697456 C171.18793155 512.85398517 161.7966222 512.85039617 152.40515423 512.83368492 C142.7131525 512.81676201 133.02160109 512.83259785 123.32964855 512.8649078 C115.01105334 512.89158985 106.69259844 512.89888346 98.37396473 512.89039272 C93.40446286 512.88545949 88.43523199 512.88770046 83.46576405 512.90818024 C78.79279081 512.9265156 74.12046611 512.92060507 69.44752789 512.89598083 C67.73225447 512.8909661 66.01693183 512.8944799 64.30169773 512.90712929 C61.96011464 512.92303203 59.62067447 512.90813856 57.27919292 512.88545799 C55.96898961 512.88487168 54.6587863 512.88428537 53.30887985 512.8836813 C49.05521425 512.09989254 47.57489941 510.58919897 44.90930462 507.25726891 C44.35071087 505.14398766 44.35071087 505.14398766 44.47180462 502.94476891 C44.53754681 501.66472984 44.53754681 501.66472984 44.60461712 500.35883141 C46.30216176 483.07869748 46.30216176 483.07869748 47.90930462 478.25726891 C47.32873806 478.26393074 46.7481715 478.27059258 46.15001202 478.27745628 C40.03280536 478.34453067 33.9157054 478.38936399 27.79822063 478.42206383 C25.52408883 478.43702416 23.24998524 478.45739977 20.97595501 478.48358727 C-8.29570646 478.81190368 -31.56967898 473.16455844 -54.09069538 453.25726891 C-54.72620319 452.70555016 -55.36171101 452.15383141 -56.01647663 451.58539391 C-70.91763706 437.74615525 -82.30620398 414.57020078 -83.18023586 394.16706276 C-83.21340775 391.66808635 -83.21436842 389.17099879 -83.20422077 386.67181969 C-83.2043668 385.72484718 -83.20451283 384.77787468 -83.20466328 383.80220604 C-83.20396902 380.68564084 -83.19619944 377.56913611 -83.18835163 374.45258141 C-83.18648572 372.28639318 -83.18506263 370.12020453 -83.18406391 367.95401573 C-83.18025236 362.26258738 -83.1704337 356.5711847 -83.15935993 350.87976646 C-83.14911653 345.06810414 -83.14456002 339.25643766 -83.13952351 333.44476891 C-83.1288102 322.04892432 -83.11175014 310.65309875 -83.09069538 299.25726891 C-84.26079151 299.07660629 -84.26079151 299.07660629 -85.45452595 298.89229393 C-89.14106825 298.00424531 -90.06972892 296.40818859 -92.09069538 293.25726891 C-93.92749691 288.57583987 -95.11179076 283.69163998 -96.34069538 278.81976891 C-96.52011677 278.12295006 -96.69953815 277.42613121 -96.88439655 276.70819664 C-100.7294067 261.47584059 -100.9747894 246.89893232 -100.09069538 231.25726891 C-101.32372395 231.28083458 -101.32372395 231.28083458 -102.58166218 231.30487633 C-106.31376966 231.36731964 -110.0457671 231.40629026 -113.77819538 231.44476891 C-115.0717696 231.46990562 -116.36534382 231.49504234 -117.69811726 231.52094078 C-119.56886921 231.53544273 -119.56886921 231.53544273 -121.47741413 231.55023766 C-122.62427692 231.5659481 -123.77113972 231.58165855 -124.95275593 231.59784508 C-128.44307336 231.21902357 -130.29714537 230.34568793 -133.09069538 228.25726891 C-134.2130682 226.01252328 -134.23947259 224.74536491 -134.28356647 222.25409508 C-134.2996294 221.42951302 -134.31569233 220.60493095 -134.33224201 219.75536156 C-134.37672066 215.98248692 -134.41775801 212.20978781 -134.44079304 208.43671227 C-134.45735089 206.44733544 -134.48463867 204.45801806 -134.52282429 202.46893883 C-134.57761802 199.59989136 -134.59947055 196.73223803 -134.61413288 193.86273766 C-134.63680225 192.97611946 -134.65947163 192.08950127 -134.68282795 191.17601585 C-134.67997791 190.34197731 -134.67712788 189.50793877 -134.67419147 188.64862633 C-134.68227833 187.91963631 -134.69036518 187.19064629 -134.69869709 186.43956566 C-133.72282485 182.93687349 -131.93314628 181.4537681 -129.09069538 179.25726891 C-126.38441423 178.76586777 -124.30726246 178.58021938 -121.60998249 178.62616539 C-120.506618 178.61543243 -120.506618 178.61543243 -119.38096333 178.60448265 C-116.95934905 178.58762906 -114.53959475 178.60697427 -112.11803913 178.62836266 C-110.43082749 178.62753373 -108.74361594 178.62507344 -107.05640888 178.6210537 C-103.52486508 178.61819813 -99.99395636 178.63287427 -96.46252155 178.66034508 C-91.93721093 178.69445418 -87.41303375 178.688399 -82.88766861 178.6696825 C-79.40546446 178.65911225 -75.9235239 178.66805001 -72.44134426 178.68306732 C-70.77279728 178.68824768 -69.10422276 178.68776908 -67.43567944 178.68152237 C-65.10385556 178.67606856 -62.77365283 178.69644668 -60.44201374 178.72382164 C-59.75359394 178.71729576 -59.06517414 178.71076988 -58.35589314 178.70404625 C-55.02057951 178.77059294 -53.33588623 179.06767902 -50.66500568 181.13289452 C-48.72350581 183.75275453 -48.57691904 185.39895527 -48.35241413 188.63226891 C-47.23486244 196.66596656 -43.20731458 202.60008602 -38.90319538 209.25726891 C-38.15068786 210.44880682 -37.40002728 211.6415132 -36.65124226 212.83539391 C-35.54287747 214.60061005 -34.43356864 216.36513743 -33.31892109 218.12639427 C-30.8627976 222.00840825 -28.44771384 225.91155011 -26.09069538 229.85492516 C-25.2495821 231.25883507 -25.2495821 231.25883507 -24.39147663 232.6911068 C-22.35789954 236.70291775 -22.08634724 238.85358858 -23.09069538 243.25726891 C-25.65319538 246.31976891 -25.65319538 246.31976891 -29.09069538 248.25726891 C-33.29229353 248.4046934 -35.30175001 247.85378858 -38.65319538 245.31976891 C-40.7918919 242.63268866 -42.49826714 240.01211001 -44.24303913 237.06586266 C-44.7779195 236.16537193 -45.31279987 235.26488121 -45.86388874 234.33710289 C-46.47115803 233.30758507 -46.47115803 233.30758507 -47.09069538 232.25726891 C-47.073857 232.89189049 -47.05701862 233.52651207 -47.03966999 234.18036461 C-46.7803078 249.49088145 -48.53469978 263.35343331 -52.34069538 278.13226891 C-52.53283619 278.90019768 -52.724977 279.66812645 -52.92294025 280.45932579 C-53.48235589 282.66693255 -54.06925063 284.86495077 -54.66882038 287.06195641 C-55.01332233 288.33023277 -55.35782429 289.59850914 -55.71276569 290.90521812 C-57.26659611 294.68517766 -58.92492246 296.69795421 -62.09069538 299.25726891 C-63.08069538 299.25726891 -64.07069538 299.25726891 -65.09069538 299.25726891 C-65.05245852 311.36758081 -64.99283761 323.47758788 -64.90679264 335.58765984 C-64.86748066 341.21240373 -64.83521289 346.83699488 -64.81969929 352.46185875 C-64.80442479 357.9020896 -64.76979054 363.34190003 -64.72238636 368.78194237 C-64.707683 370.84524926 -64.6996608 372.90861622 -64.69881153 374.97197533 C-64.68621576 390.24608049 -63.74134984 404.87396741 -56.34069538 418.63226891 C-55.82418415 419.62238976 -55.82418415 419.62238976 -55.29723835 420.63251305 C-45.11967629 439.55055985 -28.50532801 450.9767553 -8.46569538 457.34711266 C-1.49492534 459.22696152 5.03756925 459.39051113 12.21399212 459.35492516 C13.29310863 459.35351021 14.37222515 459.35209526 15.48404217 459.35063744 C18.91749164 459.34505735 22.35087498 459.33250846 25.78430462 459.31976891 C28.11763701 459.31475133 30.45097042 459.31018888 32.78430462 459.30609703 C38.49266037 459.29509443 44.20097777 459.27837611 49.90930462 459.25726891 C51.34579613 448.35713899 52.78021455 437.45673849 54.21197033 426.55598545 C54.8768219 421.49460789 55.54239332 416.43332714 56.20959759 411.37225914 C56.85318638 406.49012318 57.49490031 401.60774415 58.13530254 396.72518921 C58.38023587 394.86034193 58.62585024 392.99558397 58.87214947 391.1309166 C59.21640378 388.52377017 59.55825828 385.91631968 59.89953899 383.30878258 C60.05382618 382.14676826 60.05382618 382.14676826 60.21123028 380.96127892 C60.59225063 378.0346919 60.90930462 375.21230579 60.90930462 372.25726891 C58.66333344 370.29130921 58.66333344 370.29130921 55.72180462 368.31976891 C27.69081192 348.02795875 9.89070872 318.33458434 3.47571087 284.39008141 C2.98134887 281.18275725 2.71948965 277.98665083 2.49914837 274.74945641 C2.42986126 273.78040367 2.36057415 272.81135094 2.28918743 271.81293297 C2.164453 269.91279066 2.0645957 268.01078762 1.99426556 266.10785484 C1.60643867 259.86860468 0.0024689 256.24679603 -3.69884968 251.23139 C-6.86784271 246.73665616 -7.28644126 241.21255427 -6.93053913 235.83930016 C-5.68191926 228.79611425 -2.28283711 223.44941063 2.72180462 218.44476891 C11.00470871 212.76042296 18.08720465 212.88480163 27.90930462 213.25726891 C27.90930462 210.61726891 27.90930462 207.97726891 27.90930462 205.25726891 C27.34082806 205.29207359 26.77235149 205.32687828 26.18664837 205.36273766 C18.05573058 205.64779487 12.4382857 203.32079661 6.41711712 197.86664391 C1.67982343 192.8102579 0.89785665 186.64421454 0.52330303 180.00903893 C0.46302929 178.97181694 0.40275555 177.93459496 0.34065533 176.865942 C0.27879543 175.73856621 0.21693554 174.61119041 0.1532011 173.44965172 C0.08478008 172.25393547 0.01635906 171.05821922 -0.05413532 169.82626915 C-0.24061969 166.55348092 -0.42390022 163.28053301 -0.60559297 160.00747585 C-0.79683764 156.57358314 -0.99175208 153.13989847 -1.18613911 149.70618248 C-1.51220801 143.93624003 -1.83540675 138.16614225 -2.15685749 132.39594078 C-2.52754963 125.74238546 -2.90254801 119.08908375 -3.2799297 112.43590474 C-3.64378287 106.01974938 -4.00475006 99.60343482 -4.36435986 93.18704033 C-4.51697032 90.46474449 -4.67053804 87.74250522 -4.82488918 85.02030754 C-5.04041396 81.20782759 -5.25264252 77.39517793 -5.4639864 73.58246422 C-5.52787052 72.46318535 -5.59175465 71.34390648 -5.65757465 70.19071007 C-5.9857613 64.20149079 -6.15368907 58.25548542 -6.09069538 52.25726891 C-7.08649616 52.30947594 -7.08649616 52.30947594 -8.10241413 52.36273766 C-16.93530094 52.63352689 -16.93530094 52.63352689 -21.09069538 49.25726891 C-24.60882582 45.73913846 -24.2332335 41.84920059 -24.28112507 37.01215172 C-24.25594584 16.55822339 -24.25594584 16.55822339 -18.09069538 9.25726891 C-12.60715774 3.81971481 -8.01810074 0.01300458 0 0 Z M-3.73741055 20.17879868 C-6.8680344 24.98703144 -6.09069538 28.09084567 -6.09069538 34.25726891 C89.60930462 34.25726891 185.30930462 34.25726891 283.90930462 34.25726891 C284.11341172 24.77370092 284.11341172 24.77370092 278.90930462 18.25726891 C276.78776078 17.95212751 276.78776078 17.95212751 274.30151844 18 C273.32465238 17.99355111 272.34778631 17.98710222 271.34131825 17.9804579 C270.26040689 17.98355511 269.17949553 17.98665231 268.06582928 17.98984337 C266.92354803 17.98531226 265.78126678 17.98078114 264.60437095 17.97611272 C261.42412828 17.96560818 258.24402704 17.96414871 255.06377244 17.96650147 C251.63764291 17.96690845 248.21154752 17.95588189 244.78543377 17.94638634 C238.06931579 17.92974927 231.35323292 17.92427557 224.63709606 17.92316158 C219.17950638 17.92221236 213.72192832 17.91810836 208.26434231 17.91176033 C192.80190741 17.89414029 177.33950031 17.88492261 161.8770553 17.88642128 C161.04287824 17.88650119 160.20870118 17.8865811 159.34924603 17.88666344 C158.51405413 17.8867452 157.67886224 17.88682696 156.81836151 17.8869112 C143.28023672 17.88772425 129.74222315 17.86858388 116.20413055 17.8403867 C102.31392753 17.81168371 88.42377881 17.79784499 74.53354537 17.79957426 C66.73096675 17.80023907 58.9285047 17.79470699 51.12595272 17.77321815 C44.48283076 17.75504024 37.83987821 17.75063091 31.19674219 17.764237 C27.80581795 17.77078407 24.41521902 17.77082206 21.02432537 17.7535305 C17.35150474 17.73819631 13.679548 17.74730864 10.00674725 17.76279259 C8.93029733 17.75250546 7.85384741 17.74221833 6.7447778 17.73161948 C1.12283293 17.68434994 1.12283293 17.68434994 -3.73741055 20.17879868 Z M11.90930462 52.25726891 C12.63409715 71.01459454 12.63409715 71.01459454 13.52600384 89.76239586 C13.57985241 90.79349983 13.63370098 91.82460381 13.68918133 92.88695335 C14.23752294 103.32938261 14.80924481 113.77057934 15.38342571 124.21161461 C15.65443962 129.15428629 15.91762932 134.09728659 16.17444134 139.04071617 C16.48763426 145.06782558 16.81421135 151.09406785 17.15051937 157.11993027 C17.27563376 159.40226698 17.39600358 161.68486898 17.51150417 163.9677124 C17.6727311 167.13581371 17.85114264 170.30250038 18.03381634 173.46942711 C18.0775639 174.40694817 18.12131145 175.34446922 18.1663847 176.31040001 C18.21954845 177.17167 18.27271221 178.03293999 18.32748699 178.92030907 C18.36766886 179.66583188 18.40785072 180.41135469 18.44925022 181.17946911 C19.0931197 184.0874554 19.62064757 185.28211112 21.90930462 187.25726891 C24.97607082 187.86981894 28.01531811 187.7961278 31.13342571 187.76520348 C32.08942354 187.77144344 33.04542137 187.7776834 34.03038883 187.78411245 C37.24808752 187.80012412 40.46503722 187.78740609 43.68274212 187.77484703 C45.98371099 187.7802645 48.28467639 187.78738504 50.58563519 187.79608727 C56.84587593 187.81436797 63.10585385 187.8072334 69.36609936 187.79457092 C75.90703845 187.78446786 82.44795452 187.79382909 88.98889446 187.80011559 C100.67914174 187.80866764 112.36927811 187.79540963 124.05950618 187.77507824 C134.6637953 187.75720661 145.26790929 187.76031054 155.87219524 187.77875328 C168.17994159 187.80014855 180.48757622 187.80813321 192.79533863 187.79630423 C199.31292331 187.79005708 205.83038728 187.78926721 212.34796429 187.80245018 C218.47440678 187.81397566 224.60051743 187.80604321 230.72692394 187.78287315 C232.98001586 187.7775684 235.23313554 187.77912979 237.48621655 187.78792381 C240.55292035 187.79879303 243.61854895 187.78521993 246.68518353 187.76520348 C247.58488054 187.77412636 248.48457756 187.78304925 249.41153812 187.79224253 C254.13472015 187.84890931 254.13472015 187.84890931 257.95503521 185.39142895 C259.16364235 182.6884595 259.40814224 180.485245 259.56946087 177.52557945 C259.63973492 176.36009071 259.71000896 175.19460197 259.78241253 173.99379539 C259.84491192 172.72335884 259.90741131 171.45292229 259.97180462 170.14398766 C260.04790358 168.7967264 260.12522262 167.44953359 260.20367718 166.10240746 C260.41171271 162.47122684 260.60278694 158.83933324 260.79063702 155.20705986 C260.98883991 151.42850029 261.20228091 147.65080293 261.41418743 143.87299156 C261.75888455 137.69374097 262.09433047 131.51405324 262.42297649 125.33392906 C262.8742528 116.85289212 263.34989305 108.37336696 263.83117962 99.89398766 C264.10837042 94.97347877 264.38422093 90.05289601 264.65930462 85.13226891 C264.72424114 83.97359306 264.78917767 82.81491722 264.85608196 81.62112999 C265.03809721 78.35155242 265.21652146 75.08180032 265.39367962 71.81195641 C265.44659161 70.86797493 265.49950359 69.92399345 265.55401897 68.95140648 C265.6013316 68.06475807 265.64864422 67.17810966 265.69739056 66.26459312 C265.73862041 65.50959526 265.77985027 64.7545974 265.82232952 63.97672081 C265.94720856 60.07212573 265.90930462 56.16386045 265.90930462 52.25726891 C182.08930462 52.25726891 98.26930462 52.25726891 11.90930462 52.25726891 Z M-116.09069538 197.25726891 C-116.09069538 202.53726891 -116.09069538 207.81726891 -116.09069538 213.25726891 C-110.81069538 213.25726891 -105.53069538 213.25726891 -100.09069538 213.25726891 C-100.09069538 207.97726891 -100.09069538 202.69726891 -100.09069538 197.25726891 C-105.37069538 197.25726891 -110.65069538 197.25726891 -116.09069538 197.25726891 Z M-82.09069538 197.25726891 C-82.09069538 213.75726891 -82.09069538 230.25726891 -82.09069538 247.25726891 C-76.81069538 247.25726891 -71.53069538 247.25726891 -66.09069538 247.25726891 C-66.09069538 230.75726891 -66.09069538 214.25726891 -66.09069538 197.25726891 C-71.37069538 197.25726891 -76.65069538 197.25726891 -82.09069538 197.25726891 Z M45.90930462 205.25726891 C45.90930462 207.89726891 45.90930462 210.53726891 45.90930462 213.25726891 C107.28930462 213.25726891 168.66930462 213.25726891 231.90930462 213.25726891 C231.90930462 210.61726891 231.90930462 207.97726891 231.90930462 205.25726891 C170.52930462 205.25726891 109.14930462 205.25726891 45.90930462 205.25726891 Z M11.90930462 236.25726891 C11.15915267 239.30035181 11.15915267 239.30035181 11.90930462 242.25726891 C13.77640372 244.56002447 15.26578203 245.93550761 17.90930462 247.25726891 C19.24898089 247.35394627 20.59330144 247.39002253 21.93645477 247.39428329 C22.7838185 247.39935784 23.63118223 247.40443238 24.50422364 247.4096607 C25.4404878 247.41015845 26.37675195 247.41065621 27.34138775 247.41116905 C28.33187199 247.41555131 29.32235624 247.41993356 30.34285516 247.42444861 C33.68312207 247.43787171 37.02336259 247.44402331 40.36365032 247.45014 C42.74989219 247.45803811 45.13613285 247.46630688 47.52237225 247.47492027 C54.69847884 247.49890454 61.87459072 247.51407201 69.05072406 247.52698034 C71.07697559 247.53069155 73.10322642 247.53466484 75.12947726 247.53873301 C87.70774577 247.56396748 100.28601535 247.58602419 112.86430359 247.59846115 C115.77831113 247.60139093 118.69231864 247.60435258 121.6063261 247.60736656 C122.33060294 247.60811261 123.05487977 247.60885866 123.80110439 247.60962732 C135.53765224 247.62228477 147.27404873 247.65551264 159.0105258 247.69716839 C171.05541647 247.73956899 183.1002296 247.76315395 195.14519471 247.76838171 C201.90995833 247.77179786 208.67448536 247.78357665 215.43917561 247.81648445 C221.80117037 247.84646529 228.16275196 247.85291239 234.52480221 247.84110069 C236.86253998 247.84087913 239.20029637 247.8492519 241.53796864 247.86675453 C244.72457215 247.88931862 247.9096612 247.88120965 251.09627056 247.86527061 C252.02584255 247.8791527 252.95541454 247.89303479 253.91315538 247.90733755 C258.38246 247.85208738 260.31460339 247.7051625 263.98355675 244.94192505 C266.16551527 242.30980847 266.16551527 242.30980847 266.53430462 238.69476891 C266.20767139 235.21684833 266.20767139 235.21684833 263.98466778 233.07459164 C259.64574466 230.51059408 256.03392307 230.69876174 251.07849407 230.74260521 C250.081363 230.73565968 249.08423193 230.72871415 248.05688477 230.72155815 C244.7118917 230.70324532 241.36760441 230.71356468 238.02258587 230.72382164 C235.62604522 230.71676541 233.22950903 230.70802165 230.83298016 230.69771385 C224.99719927 230.67751944 219.16164093 230.67620033 213.32583499 230.6843394 C208.58293795 230.69063959 203.84009778 230.68950221 199.09720135 230.68306732 C198.42213427 230.68216567 197.74706719 230.68126401 197.05154353 230.68033503 C195.68015184 230.67848383 194.30876017 230.67662127 192.93736851 230.67474747 C180.07821319 230.65816953 167.21916758 230.66688835 154.36001885 230.68373305 C142.59454033 230.69843227 130.82931714 230.68379863 119.0638715 230.65496289 C106.9826986 230.62557382 94.90164356 230.61459501 82.82043648 230.62414509 C81.45409364 230.62516764 80.08775077 230.62616225 78.72140789 230.6271286 C77.71301128 230.62784319 77.71301128 230.62784319 76.68424302 230.62857221 C71.94709451 230.63073688 67.21005754 230.6209296 62.47293377 230.60635757 C56.09689809 230.5880449 49.7213382 230.59390571 43.34532833 230.61855698 C41.00276841 230.62357857 38.66017251 230.62004042 36.31764126 230.60740852 C33.12458053 230.5915498 29.93310035 230.60636237 26.74011517 230.62907982 C25.3429903 230.61132623 25.3429903 230.61132623 23.91764069 230.59321398 C18.22812573 230.67569962 15.44141967 231.38012512 11.90930462 236.25726891 Z M-80.09069538 265.25726891 C-78.77069538 270.53726891 -77.45069538 275.81726891 -76.09069538 281.25726891 C-74.77069538 280.92726891 -73.45069538 280.59726891 -72.09069538 280.25726891 C-71.58633844 278.32089851 -71.08735664 276.38312745 -70.59069538 274.44476891 C-70.17303913 272.82635094 -70.17303913 272.82635094 -69.74694538 271.17523766 C-68.9809859 268.26792915 -68.9809859 268.26792915 -69.09069538 265.25726891 C-72.72069538 265.25726891 -76.35069538 265.25726891 -80.09069538 265.25726891 Z M20.90930462 265.25726891 C20.90930462 272.64404452 21.02081153 278.62752665 22.59680462 285.63226891 C22.77759563 286.45243492 22.95838665 287.27260094 23.14465618 288.11762047 C29.55846076 315.99090069 46.64812712 339.87439658 69.90930462 356.25726891 C72.36048515 357.75074776 74.79194719 359.21990818 77.33508587 360.55023766 C79.87788623 363.30756708 79.78415862 366.65355162 79.90930462 370.25726891 C79.65285188 374.27491115 79.11026768 378.23934797 78.55408001 382.22528648 C78.39816891 383.40181786 78.2422578 384.57834923 78.08162212 385.79053307 C77.65494222 388.99573924 77.21936361 392.19958162 76.77983308 395.40304589 C76.32119386 398.76251987 75.87444764 402.12357418 75.42650127 405.48448753 C74.57735734 411.84244309 73.71824353 418.19900721 72.85520214 424.55508965 C71.58767342 433.89330385 70.33461369 443.23346182 69.0822773 452.57372379 C68.89745981 453.95201897 68.7126406 455.33031392 68.52781963 456.70860863 C68.39252752 457.71779973 68.39252752 457.71779973 68.25450224 458.74737853 C67.63167886 463.39018762 67.00383352 468.03229662 66.37440777 472.67421532 C66.04757272 475.09488392 65.72074435 477.51555343 65.39392376 479.93622398 C65.2427409 481.04430916 65.09155804 482.15239433 64.93579388 483.29405785 C64.79972225 484.3047332 64.66365063 485.31540855 64.52345562 486.35671043 C64.4041673 487.23585011 64.28487898 488.1149898 64.16197586 489.02077007 C63.85317358 491.37898714 63.85317358 491.37898714 63.90930462 494.25726891 C113.40930462 494.25726891 162.90930462 494.25726891 213.90930462 494.25726891 C212.30898046 478.8497307 212.30898046 478.8497307 210.36535931 463.49677086 C210.22530468 462.47296822 210.08525005 461.44916557 209.94095135 460.39433861 C209.64304654 458.2167939 209.3440395 456.03939971 209.04397106 453.8621521 C208.23934454 448.00885194 207.45096723 442.15334947 206.65930462 436.29828453 C205.65765687 428.89944628 204.65129346 421.50132481 203.63000774 414.1051693 C202.79769115 408.07441473 201.98008694 402.04182422 201.17222118 396.00774765 C200.8634427 393.72213099 200.54925445 391.43723816 200.2294569 389.15313721 C199.78423975 385.96861078 199.35786239 382.78207626 198.93567181 379.59442711 C198.80071301 378.66186089 198.6657542 377.72929466 198.52670574 376.76846886 C197.79196093 371.03350749 198.01671519 366.7516941 199.90930462 361.25726891 C202.01867962 359.36664391 202.01867962 359.36664391 204.65930462 358.00726891 C229.9030865 343.44991107 246.08888559 318.79899901 254.10071087 291.27289391 C256.44734495 282.5211958 257.20198062 274.45248092 257.90930462 265.25726891 C179.69930462 265.25726891 101.48930462 265.25726891 20.90930462 265.25726891 Z " fill="#4164AC" transform="translate(134.09069538116455,-0.25726890563964844)"/>
<path d="M0 0 C0.88429688 -0.02449219 1.76859375 -0.04898437 2.6796875 -0.07421875 C9.10826127 -0.10335126 9.10826127 -0.10335126 12.296875 2.2734375 C15.99172308 7.61706187 14.53375238 13.15531368 13.75 19.375 C11.8243766 29.79311633 4.71759891 38.79815637 -3.76953125 44.875 C-12.01903137 49.86367409 -18.49796729 51.39979673 -28.25 52.375 C-28.25 66.235 -28.25 80.095 -28.25 94.375 C-23.23039062 94.30539062 -23.23039062 94.30539062 -18.109375 94.234375 C-14.86931882 94.20318256 -11.62927934 94.17889291 -8.38916016 94.15527344 C-6.13680539 94.13515444 -3.88450287 94.10785592 -1.63232422 94.07324219 C1.60462331 94.02473791 4.84088047 94.00203395 8.078125 93.984375 C9.58925873 93.95340729 9.58925873 93.95340729 11.13092041 93.92181396 C17.90593719 93.91963798 17.90593719 93.91963798 21.38378906 95.79589844 C23.50388783 99.7981721 23.32108964 103.56663329 23.28125 108.03125 C23.28699036 109.44017517 23.28699036 109.44017517 23.29284668 110.87756348 C23.29556576 112.86125766 23.28820484 114.8449877 23.27148438 116.82861328 C23.25007461 119.86442016 23.27128607 122.89786046 23.296875 125.93359375 C23.29423172 127.86198439 23.28910675 129.79037356 23.28125 131.71875 C23.28934692 132.62612915 23.29744385 133.5335083 23.30578613 134.46838379 C23.21252652 140.73823069 23.21252652 140.73823069 20.90429688 143.91601562 C16.48075445 146.91183266 12.3587771 146.46451502 7.21948242 146.40405273 C6.40455322 146.39446533 5.58962402 146.38487793 4.75 146.375 C4.68304932 147.65769775 4.68304932 147.65769775 4.61474609 148.96630859 C4.03372996 158.85669837 2.98709959 168.6444974 1.703125 178.46728516 C1.37108322 181.03023265 1.05656763 183.59498962 0.7421875 186.16015625 C0.52970903 187.80742915 0.31620567 189.45457026 0.1015625 191.1015625 C0.01081451 191.85990387 -0.07993347 192.61824524 -0.1734314 193.39956665 C-0.75706685 197.69908138 -1.62394202 200.88829417 -4.25 204.375 C-6.92205509 205.71102754 -9.00515653 205.53170995 -11.99731445 205.56787109 C-13.2022908 205.58393402 -14.40726715 205.59999695 -15.64875793 205.61654663 C-21.16191461 205.6608948 -26.67493982 205.70250088 -32.18823242 205.72509766 C-35.09935957 205.73843429 -38.00978527 205.76628034 -40.9206543 205.80712891 C-44.43733383 205.85647812 -47.95337741 205.88122113 -51.47038841 205.88832474 C-53.45854168 205.89828846 -55.44652542 205.93252711 -57.43440247 205.96713257 C-67.47884982 205.94356021 -67.47884982 205.94356021 -70.54736328 203.0715332 C-72.77786608 199.53899759 -73.36565594 196.25921383 -73.8125 192.1875 C-73.92053955 191.35831055 -74.0285791 190.52912109 -74.13989258 189.67480469 C-74.53458178 186.57746548 -74.89181924 183.47677596 -75.25 180.375 C-75.51117643 178.19325278 -75.77489799 176.01182 -76.03852844 173.83036804 C-77.14283266 164.68240924 -78.20646126 155.53007936 -79.25 146.375 C-80.00853271 146.38950195 -80.76706543 146.40400391 -81.54858398 146.41894531 C-82.54188721 146.43022461 -83.53519043 146.44150391 -84.55859375 146.453125 C-86.03670532 146.47487793 -86.03670532 146.47487793 -87.54467773 146.49707031 C-90.9115622 146.3451488 -92.74580573 145.63685289 -95.25 143.375 C-97.96959752 139.5193757 -97.55583094 135.15412445 -97.55078125 130.62890625 C-97.55506638 129.78077866 -97.5593515 128.93265106 -97.56376648 128.05882263 C-97.56950135 126.2676584 -97.57001625 124.47647088 -97.56567383 122.68530273 C-97.56251513 119.95060334 -97.58597845 117.21698749 -97.61132812 114.48242188 C-97.6136014 112.73958469 -97.61430449 110.99674461 -97.61328125 109.25390625 C-97.622491 108.4391835 -97.63170074 107.62446075 -97.64118958 106.78504944 C-97.60369587 102.16501835 -97.24618577 99.12902035 -94.25 95.375 C-91.87609164 94.18804582 -90.44755049 94.25424167 -87.80029297 94.26147461 C-86.41908768 94.26158791 -86.41908768 94.26158791 -85.00997925 94.26170349 C-83.51617233 94.26944542 -83.51617233 94.26944542 -81.9921875 94.27734375 C-80.46490524 94.27946617 -80.46490524 94.27946617 -78.9067688 94.28163147 C-75.64614965 94.287241 -72.38559849 94.29979512 -69.125 94.3125 C-66.91796974 94.31751377 -64.71093841 94.32207689 -62.50390625 94.32617188 C-57.08591119 94.33721353 -51.66796714 94.35448457 -46.25 94.375 C-46.25 90.085 -46.25 85.795 -46.25 81.375 C-47.1575 81.4575 -48.065 81.54 -49 81.625 C-59.49360795 81.54037413 -68.61384052 76.15600598 -76.25 69.375 C-85.36867816 59.96818517 -88.43983324 49.20302102 -88.5625 36.4375 C-88.59150391 35.43525391 -88.62050781 34.43300781 -88.65039062 33.40039062 C-88.71356377 26.11604137 -88.71356377 26.11604137 -86.60546875 22.74609375 C-81.02935061 19.50029364 -75.56627215 20.39607179 -69.484375 21.515625 C-60.53592424 23.89323269 -51.47479912 28.53780132 -46.25 36.375 C-45.97027344 35.46878906 -45.69054687 34.56257813 -45.40234375 33.62890625 C-41.21001283 20.89015152 -34.39541201 10.52737684 -22.25 4.0625 C-15.1292629 0.54981496 -7.79282607 0.01156206 0 0 Z M-21.25 25.375 C-24.22630004 29.01264364 -24.22630004 29.01264364 -25.25 33.375 C-17.23034695 32.59259482 -12.39556033 29.03905505 -7.4140625 23.05859375 C-6.0581392 21.26511857 -6.0581392 21.26511857 -5.25 18.375 C-11.38883154 18.375 -16.88522767 21.13147134 -21.25 25.375 Z M-70.25 41.375 C-69.7622688 47.87808272 -67.02407516 52.95025283 -62.140625 57.21875 C-60.21224119 58.66845698 -58.26773446 60.05320869 -56.25 61.375 C-55.32702924 58.85569616 -55.17874275 57.61096662 -55.96484375 55.0078125 C-58.95766808 48.86917602 -62.16704351 44.67832737 -68.25 41.375 C-68.91 41.375 -69.57 41.375 -70.25 41.375 Z M-79.25 112.375 C-79.25 117.655 -79.25 122.935 -79.25 128.375 C-51.53 128.375 -23.81 128.375 4.75 128.375 C4.75 123.095 4.75 117.815 4.75 112.375 C-22.97 112.375 -50.69 112.375 -79.25 112.375 Z M-60.25 146.375 C-59.64081702 156.12192761 -58.99912549 165.65960453 -57.75 175.3125 C-57.61980469 176.37662109 -57.48960937 177.44074219 -57.35546875 178.53710938 C-57.16119981 183.31546642 -57.16119981 183.31546642 -55.25 187.375 C-52.51105915 187.46358646 -49.7974673 187.49023479 -47.05859375 187.47265625 C-46.23875504 187.4712413 -45.41891632 187.46982635 -44.57423401 187.46836853 C-41.94528618 187.46275289 -39.31642227 187.45019779 -36.6875 187.4375 C-34.90950643 187.43248701 -33.13151154 187.42792376 -31.35351562 187.42382812 C-26.98564455 187.41277839 -22.61783652 187.39550331 -18.25 187.375 C-17.5335213 182.34021269 -16.82157529 177.30481274 -16.11376953 172.26879883 C-15.87249342 170.55671 -15.62999301 168.84479323 -15.38623047 167.13305664 C-15.03549131 164.66857722 -14.68920101 162.20350678 -14.34375 159.73828125 C-14.17969666 158.59580681 -14.17969666 158.59580681 -14.0123291 157.43025208 C-13.49006832 153.67194473 -13.25 150.18861741 -13.25 146.375 C-28.76 146.375 -44.27 146.375 -60.25 146.375 Z " fill="#13AACE" transform="translate(489.25,306.625)"/>
<path d="M0 0 C6.66411882 5.92664088 9.44855519 12.11577456 10.4375 20.875 C10.13596971 28.03993394 7.15755623 35.9941366 2 41 C-3.2972973 45 -3.2972973 45 -7 45 C-6.97679687 45.80824219 -6.95359375 46.61648437 -6.9296875 47.44921875 C-6.91164062 48.51785156 -6.89359375 49.58648437 -6.875 50.6875 C-6.85179687 51.74324219 -6.82859375 52.79898438 -6.8046875 53.88671875 C-7.0051964 57.08283066 -7.50765287 59.17837678 -9 62 C-12.71205381 64.47470254 -15.69873226 64.75460838 -20 64 C-22.9375 62.3125 -22.9375 62.3125 -25 59 C-25.17166032 56.83763373 -25.26829056 54.66871867 -25.3125 52.5 C-25.32576344 47.92189472 -25.32576344 47.92189472 -27.65234375 44.25390625 C-29.73690225 43.03582111 -29.73690225 43.03582111 -31.93359375 42.02734375 C-36.58794204 39.71336719 -39.63874178 34.94902822 -41.49609375 30.18359375 C-43.2562058 22.55644153 -42.88715681 14.80252442 -39 8 C-38.443125 6.96875 -37.88625 5.9375 -37.3125 4.875 C-33.17881017 -0.26418196 -27.67350513 -3.45840956 -21.19921875 -4.78125 C-13.62316193 -5.53481871 -6.2315341 -4.55837378 0 0 Z M-19.75 14.25 C-23.22722483 16.82260372 -23.22722483 16.82260372 -24.4375 20.8125 C-24.23770735 24.15908945 -24.23770735 24.15908945 -21.875 26.875 C-19.16871333 29.20082135 -19.16871333 29.20082135 -15.9375 29.5625 C-12.31562954 28.86895034 -11.16074795 27.96102497 -9 25 C-7.76983569 21.80157279 -7.79697885 20.51352407 -9.0625 17.3125 C-12.19208741 13.57718599 -15.18125633 12.17329833 -19.75 14.25 Z " fill="#57439B" transform="translate(204,64)"/>
</svg>
