<?xml version="1.0" encoding="UTF-8"?>
<svg version="1.1" xmlns="http://www.w3.org/2000/svg" width="512" height="512">
<path d="M0 0 C1.00038514 -0.00743927 1.00038514 -0.00743927 2.02098009 -0.01502883 C4.24782157 -0.02794566 6.47405955 -0.01961312 8.70091534 -0.01129913 C10.31675585 -0.01618991 11.93259287 -0.02238058 13.54842395 -0.02975702 C17.98277195 -0.0461561 22.41694217 -0.04383867 26.8513099 -0.03838205 C31.63603943 -0.03571181 36.42072157 -0.05024358 41.20543194 -0.06247711 C50.57722045 -0.08353378 59.9489471 -0.08807182 69.32075647 -0.08628923 C76.93874236 -0.08498168 84.55670895 -0.08878538 92.1746912 -0.09621429 C94.36893533 -0.09831349 96.56317945 -0.10041109 98.75742358 -0.10250711 C99.84956023 -0.10355064 100.94169689 -0.10459417 102.06692859 -0.10566932 C122.72341625 -0.12457277 143.37986839 -0.12352122 164.03636112 -0.11669999 C182.93087304 -0.1111249 201.82524935 -0.13194836 220.71972958 -0.16506046 C240.12232408 -0.19879899 259.52485363 -0.21396556 278.92747802 -0.20934343 C289.81984999 -0.20709886 300.71209664 -0.21234024 311.60444355 -0.23723602 C320.87793299 -0.25825125 330.15122839 -0.26183891 339.42472581 -0.24293643 C344.15514072 -0.23377988 348.88519385 -0.23263314 353.61558056 -0.25329208 C357.94912581 -0.27200839 362.28201317 -0.26749141 366.61553343 -0.24474627 C368.1800957 -0.24056215 369.74470846 -0.24475428 371.30921731 -0.25834221 C381.23395098 -0.33864388 389.61314283 0.32025392 397.17920905 7.37286997 C405.35861602 15.9259328 405.47196718 24.24056298 405.38516521 35.49810028 C405.38431821 37.03605889 405.38479551 38.57401872 405.38649273 40.11197662 C405.38735126 44.27269359 405.3697487 48.43314956 405.34877086 52.59380603 C405.32998022 56.9473123 405.32825174 61.30082497 405.32469463 65.65436554 C405.31538117 73.89194393 405.29077687 82.12940247 405.26064616 90.36692816 C405.22708038 99.74778989 405.21061067 109.12865742 405.19555986 118.50956428 C405.16422668 137.80081408 405.1114798 157.09195242 405.04458904 176.38311005 C405.8718449 176.36216278 406.69910076 176.34121552 407.55142498 176.31963348 C411.29902275 176.23649385 415.04642653 176.18445474 418.79458904 176.13311005 C420.09654217 176.09959442 421.39849529 176.0660788 422.73990154 176.03154755 C423.99029217 176.01865692 425.24068279 176.0057663 426.52896404 175.99248505 C427.68106365 175.97153778 428.83316326 175.95059052 430.02017498 175.92900848 C433.04458904 176.38311005 433.04458904 176.38311005 435.42006969 178.13237762 C437.22775055 180.63687591 437.54646391 181.73953763 437.55252361 184.7854538 C437.56944256 186.09763885 437.56944256 186.09763885 437.5867033 187.4363327 C437.57455791 188.86404999 437.57455791 188.86404999 437.56216717 190.32061005 C437.57268108 191.83340546 437.57268108 191.83340546 437.5834074 193.37676239 C437.60102123 196.71249119 437.58935214 200.04737253 437.57583904 203.38311005 C437.57853297 205.69951796 437.58241456 208.01592476 437.58743572 210.3323288 C437.59333538 215.18790703 437.58475242 220.043191 437.56607342 224.89873505 C437.543284 231.12675651 437.55640452 237.3540885 437.58036327 243.58208466 C437.59480837 248.36558489 437.59022109 253.14892132 437.5798521 257.93242645 C437.57718127 260.22897676 437.58046704 262.52554188 437.58977032 264.82207489 C437.59991431 268.03032145 437.58446387 271.23744711 437.56216717 274.44561005 C437.57026409 275.39742157 437.57836102 276.34923309 437.5867033 277.32988739 C437.50448118 283.70679993 437.50448118 283.70679993 435.26224041 287.0042038 C433.04458904 288.38311005 433.04458904 288.38311005 429.04458904 288.38311005 C429.06553631 288.96802216 429.08648357 289.55293427 429.10806561 290.15557098 C429.1913902 292.8145747 429.24329801 295.4733036 429.29458904 298.13311005 C429.32810467 299.05350067 429.36162029 299.9738913 429.39615154 300.92217255 C429.49356386 307.64362212 429.49356386 307.64362212 427.45083904 311.00811005 C424.23724706 312.84444832 421.97277964 312.78023767 418.29458904 312.63311005 C417.12412029 312.5970163 415.95365154 312.56092255 414.74771404 312.52373505 C413.85568279 312.4773288 412.96365154 312.43092255 412.04458904 312.38311005 C412.06553631 312.96802216 412.08648357 313.55293427 412.10806561 314.15557098 C412.1913902 316.8145747 412.24329801 319.4733036 412.29458904 322.13311005 C412.32810467 323.05350067 412.36162029 323.9738913 412.39615154 324.92217255 C412.40904217 325.81162567 412.42193279 326.7010788 412.43521404 327.61748505 C412.45616131 328.43442841 412.47710857 329.25137177 412.49869061 330.09307098 C411.85016236 333.36360591 410.74635823 334.45265414 408.04458904 336.38311005 C404.71646404 336.90068817 404.71646404 336.90068817 400.79458904 336.91436005 C400.09946209 336.91818695 399.40433514 336.92201385 398.68814373 336.92595673 C397.22230864 336.92867184 395.75642477 336.9213384 394.29068279 336.90459442 C392.05129929 336.88317423 389.81512318 336.90440447 387.57583904 336.92998505 C386.14874865 336.92734169 384.72166025 336.92221655 383.29458904 336.91436005 C382.00037029 336.90984833 380.70615154 336.90533661 379.37271404 336.90068817 C375.48493446 336.29607456 374.36688732 335.49722562 372.04458904 332.38311005 C371.03970623 330.41606903 371.03970623 330.41606903 370.34146404 328.3792038 C370.08365154 327.63863739 369.82583904 326.89807098 369.56021404 326.13506317 C369.30755779 325.37129364 369.05490154 324.60752411 368.79458904 323.82061005 C368.39240154 322.66915497 368.39240154 322.66915497 367.98208904 321.49443817 C366.88124258 318.27333895 366.04458904 315.81801533 366.04458904 312.38311005 C248.89458904 312.38311005 131.74458904 312.38311005 11.04458904 312.38311005 C10.38458904 315.35311005 9.72458904 318.32311005 9.04458904 321.38311005 C8.28896702 323.71481497 7.48113527 326.03066339 6.60708904 328.32061005 C6.19587811 329.42275848 5.78466717 330.52490692 5.36099529 331.6604538 C4.04458904 334.38311005 4.04458904 334.38311005 1.04458904 336.38311005 C-3.50632151 336.79440978 -8.06665919 336.75471327 -12.63387775 336.75371552 C-14.88180026 336.75808843 -17.12775775 336.79441374 -19.37533283 336.8323288 C-20.80696676 336.83819742 -22.23860999 336.84216651 -23.67025471 336.84404755 C-24.9708382 336.85226532 -26.2714217 336.86048309 -27.61141682 336.86894989 C-30.95541096 336.38311005 -30.95541096 336.38311005 -33.38631916 334.65215302 C-35.20202308 332.02648751 -35.42702803 330.77617575 -35.34603596 327.61748505 C-35.32670002 326.28330536 -35.32670002 326.28330536 -35.30697346 324.92217255 C-35.25670002 323.54158661 -35.25670002 323.54158661 -35.20541096 322.13311005 C-35.18736408 321.19725067 -35.16931721 320.2613913 -35.15072346 319.29717255 C-35.10366769 316.99143989 -35.03794808 314.6878006 -34.95541096 312.38311005 C-35.77525471 312.4295163 -36.59509846 312.47592255 -37.43978596 312.52373505 C-38.51744221 312.5598288 -39.59509846 312.59592255 -40.70541096 312.63311005 C-41.77275471 312.6795163 -42.84009846 312.72592255 -43.93978596 312.77373505 C-46.95541096 312.38311005 -46.95541096 312.38311005 -49.33041096 311.00811005 C-51.88229174 306.88584109 -51.37797586 302.87200768 -51.20541096 298.13311005 C-51.18736408 297.19725067 -51.16931721 296.2613913 -51.15072346 295.29717255 C-51.10366769 292.99143989 -51.03794808 290.6878006 -50.95541096 288.38311005 C-51.90416096 288.27998505 -52.85291096 288.17686005 -53.83041096 288.07061005 C-56.95541096 287.38311005 -56.95541096 287.38311005 -58.95541096 284.38311005 C-59.21267986 282.40093327 -59.21267986 282.40093327 -59.22283649 280.10102081 C-59.23136646 279.22760544 -59.23989643 278.35419006 -59.24868488 277.45430756 C-59.24732533 276.02119736 -59.24732533 276.02119736 -59.2459383 274.55913544 C-59.25265553 273.55075119 -59.25937275 272.54236694 -59.26629353 271.5034256 C-59.28532695 268.16248936 -59.28920031 264.82175341 -59.29134846 261.4807663 C-59.29777221 259.16292995 -59.30450025 256.84509444 -59.31152058 254.52725983 C-59.32350641 249.66579559 -59.32720001 244.80440248 -59.32601643 239.9429245 C-59.32581306 233.70707796 -59.35312785 227.47168627 -59.38756084 221.23594761 C-59.40977378 216.44818772 -59.4138557 211.66053831 -59.41279697 206.87273216 C-59.41516091 204.57337563 -59.4240287 202.27401642 -59.43946171 199.97471046 C-59.45900971 196.76164042 -59.45332748 193.5495645 -59.4412508 190.33647919 C-59.45810932 188.90640533 -59.45810932 188.90640533 -59.47530842 187.4474411 C-59.46691944 186.5712059 -59.45853046 185.6949707 -59.44988728 184.79218292 C-59.45097681 184.03283479 -59.45206635 183.27348665 -59.4531889 182.49112797 C-58.72376391 179.40211815 -57.49529017 178.25232665 -54.95541096 176.38311005 C-51.93099689 175.92900848 -51.93099689 175.92900848 -48.43978596 175.99248505 C-46.56420002 176.01182098 -46.56420002 176.01182098 -44.65072346 176.03154755 C-42.69779377 176.08182098 -42.69779377 176.08182098 -40.70541096 176.13311005 C-39.38798908 176.15115692 -38.07056721 176.1692038 -36.71322346 176.18779755 C-33.45988788 176.23494734 -30.20801471 176.30074961 -26.95541096 176.38311005 C-26.96001992 175.58834574 -26.96462889 174.79358143 -26.96937752 173.97473335 C-27.07993898 154.61042035 -27.16260747 135.24617058 -27.21447182 115.88160896 C-27.24022159 106.51692219 -27.2753102 97.15244648 -27.33260822 87.7878952 C-27.38254224 79.62297398 -27.41472542 71.45820568 -27.42585343 63.293136 C-27.43235533 58.97222289 -27.44756867 54.65174712 -27.48406124 50.33097458 C-27.51817916 46.25809201 -27.52843241 42.18582395 -27.52094936 38.11281204 C-27.52231691 36.62375033 -27.5321554 35.13466655 -27.55143833 33.64572906 C-27.67167435 23.87661858 -26.8944497 15.6868045 -19.96544075 8.24621773 C-14.06417243 2.609241 -8.15344062 0.01083152 0 0 Z M-8.33041096 21.82061005 C-10.99824214 26.0275746 -11.07984515 29.55076578 -11.07566547 34.48278046 C-11.07704014 35.73357391 -11.0784148 36.98436737 -11.07983112 38.27306366 C-11.07629222 39.65642572 -11.07265741 41.03978753 -11.06893635 42.42314911 C-11.06865423 43.88184863 -11.06881268 45.3405483 -11.06937885 46.79924774 C-11.06966588 50.75757476 -11.0637844 54.7158715 -11.0568049 58.67419147 C-11.05055565 62.81151743 -11.04996631 66.94884407 -11.04877949 71.08617401 C-11.04567081 78.92005946 -11.03746366 86.75393097 -11.02743 94.58781028 C-11.01625448 103.50671571 -11.01075478 112.4256218 -11.00573456 121.34453249 C-10.99528067 139.69073452 -10.97694094 158.03691744 -10.95541096 176.38311005 C2.24458904 176.38311005 15.44458904 176.38311005 29.04458904 176.38311005 C29.05876873 173.32287567 29.07294842 170.2626413 29.08755779 167.10967255 C29.11824694 164.11753881 29.15731787 161.12562234 29.19717693 158.13359833 C29.2202508 156.06792233 29.23472752 154.00213046 29.24014568 151.9363327 C29.24951313 148.95172036 29.29067303 145.96890408 29.33755779 142.98467255 C29.33165882 141.61842239 29.33165882 141.61842239 29.32564068 140.22457123 C29.49343202 132.7062633 31.65038777 126.09917599 36.7996397 120.46163177 C43.54918756 114.14510017 50.29612063 112.93509221 59.22745037 112.96318817 C60.22678097 112.95471863 61.22611156 112.94624908 62.25572491 112.93752289 C65.54615429 112.91420106 68.83611464 112.91312972 72.12662029 112.91436005 C74.42436693 112.90725489 76.7221118 112.89955538 79.01985455 112.89128876 C83.83226739 112.87785446 88.64451623 112.87627022 93.45694256 112.88213348 C99.60701355 112.88802426 105.7562937 112.85745784 111.90621185 112.8170166 C116.65133647 112.79109449 121.3962719 112.7882664 126.14145756 112.79190826 C128.40794834 112.79022083 130.67444822 112.78061484 132.94086933 112.76276398 C136.11895678 112.74048887 139.29545946 112.75032098 142.47354412 112.76787567 C143.86183422 112.7479808 143.86183422 112.7479808 145.27817059 112.72768402 C152.78183976 112.82340144 159.34571806 115.00413377 164.96618652 120.13851929 C171.30086969 126.9064969 172.49452926 133.73595815 172.55630779 142.6917038 C172.574259 143.65842514 172.5922102 144.62514648 172.61070538 145.62116241 C172.66458416 148.68760152 172.69863213 151.75388697 172.73208904 154.82061005 C172.7652819 156.90852195 172.79977337 158.99641363 172.83560467 161.08428192 C172.92272586 166.18391068 172.98298663 171.28285472 173.04458904 176.38311005 C183.60458904 176.38311005 194.16458904 176.38311005 205.04458904 176.38311005 C205.05876873 173.32287567 205.07294842 170.2626413 205.08755779 167.10967255 C205.11824694 164.11753881 205.15731787 161.12562234 205.19717693 158.13359833 C205.2202508 156.06792233 205.23472752 154.00213046 205.24014568 151.9363327 C205.24951313 148.95172036 205.29067303 145.96890408 205.33755779 142.98467255 C205.33362514 142.07383911 205.3296925 141.16300568 205.32564068 140.22457123 C205.49343202 132.7062633 207.65038777 126.09917599 212.7996397 120.46163177 C219.54918756 114.14510017 226.29612063 112.93509221 235.22745037 112.96318817 C236.22678097 112.95471863 237.22611156 112.94624908 238.25572491 112.93752289 C241.54615429 112.91420106 244.83611464 112.91312972 248.12662029 112.91436005 C250.42436693 112.90725489 252.7221118 112.89955538 255.01985455 112.89128876 C259.83226739 112.87785446 264.64451623 112.87627022 269.45694256 112.88213348 C275.60701355 112.88802426 281.7562937 112.85745784 287.90621185 112.8170166 C292.65133647 112.79109449 297.3962719 112.7882664 302.14145756 112.79190826 C304.40794834 112.79022083 306.67444822 112.78061484 308.94086933 112.76276398 C312.11895678 112.74048887 315.29545946 112.75032098 318.47354412 112.76787567 C319.86183422 112.7479808 319.86183422 112.7479808 321.27817059 112.72768402 C328.78183976 112.82340144 335.34571806 115.00413377 340.96618652 120.13851929 C347.30086969 126.9064969 348.49452926 133.73595815 348.55630779 142.6917038 C348.5832346 144.14178581 348.5832346 144.14178581 348.61070538 145.62116241 C348.66458416 148.68760152 348.69863213 151.75388697 348.73208904 154.82061005 C348.7652819 156.90852195 348.79977337 158.99641363 348.83560467 161.08428192 C348.92272586 166.18391068 348.98298663 171.28285472 349.04458904 176.38311005 C362.24458904 176.38311005 375.44458904 176.38311005 389.04458904 176.38311005 C389.11233863 157.20719874 389.16758981 138.03138451 389.20002556 118.85538387 C389.21548708 109.95141499 389.23656292 101.04752581 389.2709074 92.14360809 C389.30083166 84.38194047 389.32016925 76.62033058 389.32685453 68.85860687 C389.33076166 64.74973755 389.33992904 60.64103337 389.36177921 56.53221703 C389.38219222 52.66217586 389.38841316 48.79236735 389.38391209 44.92227745 C389.38473514 43.50454187 389.39067219 42.08679825 389.40220547 40.66910934 C389.58415655 30.58855642 389.58415655 30.58855642 386.04458904 21.38311005 C381.15868153 16.62248221 377.32860457 16.25895018 370.69981956 16.25168228 C369.38641553 16.24784114 368.07301149 16.24399999 366.71980733 16.24004245 C365.2586251 16.2408227 363.79744292 16.24170148 362.3362608 16.24266815 C360.78687173 16.24008465 359.23748334 16.23707153 357.68809587 16.23366475 C353.42365247 16.22558989 349.15922589 16.22380491 344.89477575 16.22306728 C340.29820928 16.2212176 335.70165156 16.21367073 331.10509014 16.20693207 C321.05145982 16.1933452 310.99783348 16.1873236 300.94419551 16.18292141 C294.66853453 16.18015983 288.39287509 16.17592265 282.11721516 16.17141724 C264.74674832 16.15922457 247.37628272 16.14892495 230.00581169 16.14554214 C228.89389128 16.14532258 227.78197087 16.14510301 226.6363559 16.14487679 C225.52175607 16.14465852 224.40715624 16.14444024 223.25878066 16.14421535 C221.00012759 16.14377188 218.74147453 16.14332531 216.48282146 16.14287567 C214.802262 16.14254353 214.802262 16.14254353 213.08775184 16.14220467 C194.92824375 16.13825552 176.76877577 16.12079791 158.60928317 16.09751615 C139.97182661 16.07381414 121.33439019 16.06134083 102.69691831 16.06017423 C92.22995846 16.05925687 81.76305086 16.05348916 71.29610538 16.03535461 C62.3844525 16.01996923 53.47286803 16.01482396 44.5612044 16.02309272 C40.01353445 16.02700463 35.46600233 16.02604321 30.91834927 16.01203537 C26.75522706 15.99932909 22.59234672 16.00046506 18.42922501 16.01262608 C16.92317116 16.01458876 15.41710038 16.01147836 13.91107037 16.00278172 C1.710667 15.66926912 1.710667 15.66926912 -8.33041096 21.82061005 Z M47.66958904 133.82061005 C40.31957584 145.41101548 45.04458904 167.94430132 45.04458904 176.38311005 C82.00458904 176.38311005 118.96458904 176.38311005 157.04458904 176.38311005 C159.40810483 144.62868471 159.40810483 144.62868471 154.04458904 133.38311005 C148.67039257 128.14671349 143.82901113 128.23207747 136.62344646 128.22197723 C135.7757922 128.21701233 134.92813793 128.21204742 134.05479717 128.20693207 C131.25320909 128.19233865 128.45167763 128.18551312 125.65005779 128.17998505 C123.69956238 128.17423125 121.74906698 128.16847354 119.79857159 128.1627121 C115.70894387 128.15221012 111.61933577 128.1463622 107.52969646 128.14287567 C102.29754552 128.13739283 97.06565504 128.11336584 91.83358574 128.08490372 C87.80404695 128.06625081 83.77457057 128.06107032 79.74499226 128.05953979 C77.81654022 128.05651871 75.88808914 128.04850858 73.9596796 128.03535461 C71.25755832 128.01823877 68.55606919 128.02018785 65.85391521 128.02666473 C65.06250134 128.01744995 64.27108746 128.00823517 63.45569134 127.99874115 C57.16151472 128.0458375 52.22224429 129.14814808 47.66958904 133.82061005 Z M223.66958904 133.82061005 C216.31957584 145.41101548 221.04458904 167.94430132 221.04458904 176.38311005 C258.00458904 176.38311005 294.96458904 176.38311005 333.04458904 176.38311005 C335.40810483 144.62868471 335.40810483 144.62868471 330.04458904 133.38311005 C324.67039257 128.14671349 319.82901113 128.23207747 312.62344646 128.22197723 C311.7757922 128.21701233 310.92813793 128.21204742 310.05479717 128.20693207 C307.25320909 128.19233865 304.45167763 128.18551312 301.65005779 128.17998505 C299.69956238 128.17423125 297.74906698 128.16847354 295.79857159 128.1627121 C291.70894387 128.15221012 287.61933577 128.1463622 283.52969646 128.14287567 C278.29754552 128.13739283 273.06565504 128.11336584 267.83358574 128.08490372 C263.80404695 128.06625081 259.77457057 128.06107032 255.74499226 128.05953979 C253.81654022 128.05651871 251.88808914 128.04850858 249.9596796 128.03535461 C247.25755832 128.01823877 244.55606919 128.02018785 241.85391521 128.02666473 C241.06250134 128.01744995 240.27108746 128.00823517 239.45569134 127.99874115 C233.16151472 128.0458375 228.22224429 129.14814808 223.66958904 133.82061005 Z M-42.95541096 192.38311005 C-42.95541096 218.78311005 -42.95541096 245.18311005 -42.95541096 272.38311005 C110.16458904 272.38311005 263.28458904 272.38311005 421.04458904 272.38311005 C421.04458904 245.98311005 421.04458904 219.58311005 421.04458904 192.38311005 C267.92458904 192.38311005 114.80458904 192.38311005 -42.95541096 192.38311005 Z M-34.95541096 288.38311005 C-34.95541096 291.02311005 -34.95541096 293.66311005 -34.95541096 296.38311005 C112.88458904 296.38311005 260.72458904 296.38311005 413.04458904 296.38311005 C413.04458904 293.74311005 413.04458904 291.10311005 413.04458904 288.38311005 C265.20458904 288.38311005 117.36458904 288.38311005 -34.95541096 288.38311005 Z M-18.95541096 312.38311005 C-18.95541096 315.02311005 -18.95541096 317.66311005 -18.95541096 320.38311005 C-15.65541096 320.38311005 -12.35541096 320.38311005 -8.95541096 320.38311005 C-8.29541096 317.74311005 -7.63541096 315.10311005 -6.95541096 312.38311005 C-10.91541096 312.38311005 -14.87541096 312.38311005 -18.95541096 312.38311005 Z M384.04458904 312.38311005 C384.70458904 315.02311005 385.36458904 317.66311005 386.04458904 320.38311005 C389.34458904 320.38311005 392.64458904 320.38311005 396.04458904 320.38311005 C396.04458904 317.74311005 396.04458904 315.10311005 396.04458904 312.38311005 C392.08458904 312.38311005 388.12458904 312.38311005 384.04458904 312.38311005 Z " fill="#00A6C8" transform="translate(66.95541095733643,87.61688995361328)"/>
</svg>
