<?xml version="1.0" encoding="UTF-8"?>
<svg version="1.1" xmlns="http://www.w3.org/2000/svg" width="512" height="512">
<path d="M0 0 C0.99 0.33 1.98 0.66 3 1 C4.17578125 3.44140625 4.17578125 3.44140625 5.3125 6.5625 C8.61417953 14.8858957 12.90467569 20.59403862 20 26 C19.45187039 29.70793558 18.16914498 30.98930877 15.25 33.25 C10.32271552 37.35459604 7.03187822 41.90436534 5 48 C6.16724861 48.00879936 6.16724861 48.00879936 7.358078 48.01777649 C14.70009174 48.07573738 22.04176743 48.14783308 29.38347912 48.23571491 C33.15773053 48.28039737 36.93187454 48.31965788 40.70629883 48.34643555 C44.35047178 48.37249018 47.99423095 48.41290709 51.63814735 48.46318626 C53.02671464 48.47984053 54.41535348 48.4913638 55.80400658 48.49761391 C57.7525102 48.50726972 59.70088242 48.53704261 61.64916992 48.56762695 C62.7572551 48.57873001 63.86534027 48.58983307 65.00700378 48.60127258 C75.52594396 50.00260741 82.48344859 62.4980697 88.56103516 70.33325195 C92.28731467 75.12921852 96.12379225 79.82465014 100 84.5 C104.69323541 90.16573617 109.2978957 95.88572355 113.81640625 101.69140625 C117.464851 106.36099005 121.22013828 110.93640885 125 115.5 C129.68726655 121.15914039 134.2904462 126.86920773 138.79882812 132.67163086 C143.18373629 138.29080349 147.73579616 143.76980176 152.31835938 149.22851562 C157.54466496 155.5036579 160.75298271 159.75530641 160.4609375 168.1796875 C159.65398498 173.11714274 157.15056908 176.22052654 154 180 C153.59249512 180.49258301 153.18499023 180.98516602 152.76513672 181.49267578 C150.44291579 184.29177376 148.09160943 187.06404957 145.71875 189.8203125 C142.79462323 193.22304289 139.99503728 196.71565056 137.20703125 200.23046875 C134.43126687 203.71368458 131.62308435 207.16985828 128.8125 210.625 C128.2570752 211.30796143 127.70165039 211.99092285 127.12939453 212.69458008 C125.98822213 214.09757779 124.8469451 215.50049041 123.70556641 216.90332031 C120.42848479 220.93188844 117.15432556 224.96283262 113.88061523 228.99414062 C111.15039757 232.35567235 108.41759962 235.7150438 105.6796875 239.0703125 C100.51982364 245.39886347 95.39349147 251.7460689 90.375 258.1875 C86.78392988 262.79444352 83.10120965 267.30417885 79.3125 271.75 C78.40623939 272.81639723 77.49998915 273.88280328 76.59375 274.94921875 C74.90817624 276.93265246 73.22036154 278.91410142 71.53125 280.89453125 C70.43296875 282.21517578 70.43296875 282.21517578 69.3125 283.5625 C68.66925781 284.32691406 68.02601563 285.09132813 67.36328125 285.87890625 C65.63954714 288.14058202 65.63954714 288.14058202 66 292 C69.51502869 297.91351886 75.5485229 302.01436452 81 306 C80.69606597 309.21064853 80.38288647 310.63950455 77.99609375 312.88671875 C77.15175781 313.48097656 76.30742187 314.07523437 75.4375 314.6875 C62.62833378 324.46339719 56.55609545 337.88448331 52 353 C50.12109375 352.83984375 50.12109375 352.83984375 48 352 C46.91015625 349.62890625 46.91015625 349.62890625 46.0625 346.5625 C43.67783751 338.71649282 41.08762276 331.67490257 35 326 C34.57332031 326.53625 34.14664062 327.0725 33.70703125 327.625 C27.75300261 335.08901941 21.73136237 342.49721855 15.70556641 349.90332031 C12.96883521 353.26762714 10.2345045 356.63388328 7.5 360 C6.41667893 361.3333433 5.33334558 362.66667662 4.25 364 C3.71375 364.66 3.1775 365.32 2.625 366 C-12 384 -26.625 402 -41.25 420 C-42.0548584 420.99060425 -42.0548584 420.99060425 -42.87597656 422.0012207 C-43.95603016 423.33050495 -45.03610817 424.65976937 -46.11621094 425.98901367 C-48.87492773 429.38413329 -51.63318009 432.77962852 -54.390625 436.17578125 C-65.79194005 450.21628959 -65.79194005 450.21628959 -70.61328125 456.0625 C-72.51168243 458.39899376 -74.37686491 460.75324797 -76.23046875 463.125 C-77.08705078 464.2087793 -77.08705078 464.2087793 -77.9609375 465.31445312 C-79.08582484 466.73837726 -80.20218601 468.16909181 -81.30859375 469.60742188 C-84.91731915 474.14959233 -88.18721774 477.28510333 -94.125 478.3984375 C-94.74375 478.39070313 -95.3625 478.38296875 -96 478.375 C-96.61875 478.38273437 -97.2375 478.39046875 -97.875 478.3984375 C-104.26086813 477.20108722 -107.78371352 473.47839147 -111.6875 468.6875 C-112.20586426 468.06721924 -112.72422852 467.44693848 -113.25830078 466.80786133 C-117.16955479 462.0975787 -120.96148705 457.29334588 -124.71801758 452.45922852 C-128.93350481 447.04230872 -133.2914658 441.74933946 -137.6652832 436.45996094 C-143.28148531 429.66756281 -148.8408354 422.8301857 -154.39111328 415.98388672 C-157.09162747 412.65393553 -159.79601795 409.3271353 -162.5 406 C-163.58335171 404.6666816 -164.66668505 403.33334827 -165.75 402 C-166.28625 401.34 -166.8225 400.68 -167.375 400 C-177.66666667 387.33333333 -187.95833333 374.66666667 -198.25 362 C-199.0546167 361.0097583 -199.0546167 361.0097583 -199.87548828 359.99951172 C-200.95734112 358.66792549 -202.03904718 357.33622 -203.12060547 356.00439453 C-205.85039108 352.64333059 -208.58280217 349.28446381 -211.3203125 345.9296875 C-216.48017636 339.60113653 -221.60650853 333.2539311 -226.625 326.8125 C-230.65982038 321.63627425 -234.83021471 316.59741809 -239.09082031 311.60595703 C-242.40457959 307.72016568 -245.61960376 303.77016858 -248.79296875 299.76953125 C-251.56873313 296.28631542 -254.37691565 292.83014172 -257.1875 289.375 C-257.7429248 288.69203857 -258.29834961 288.00907715 -258.87060547 287.30541992 C-260.01177787 285.90242221 -261.1530549 284.49950959 -262.29443359 283.09667969 C-265.03116479 279.73237286 -267.7654955 276.36611672 -270.5 273 C-271.58332107 271.6666567 -272.66665442 270.33332338 -273.75 269 C-296.5 241 -296.5 241 -319.25 213 C-319.78657227 212.33967773 -320.32314453 211.67935547 -320.87597656 210.99902344 C-321.956349 209.66918436 -323.03642844 208.3391072 -324.11621094 207.00878906 C-326.86745947 203.61995487 -329.62409462 200.23574904 -332.390625 196.859375 C-352.64114998 172.11068315 -352.64114998 172.11068315 -352.5234375 163.05859375 C-351.52792885 157.24155441 -347.75769515 153.37010433 -344 149 C-343.1342995 147.97099091 -342.26974457 146.94101714 -341.40625 145.91015625 C-340.03581922 144.28132271 -338.66116751 142.65678711 -337.27563477 141.04077148 C-333.95459635 137.16669983 -330.759405 133.21371176 -327.625 129.1875 C-323.6787817 124.12166684 -319.68004401 119.10423091 -315.625 114.125 C-314.81144043 113.12593628 -314.81144043 113.12593628 -313.98144531 112.10668945 C-311.76700979 109.38965686 -309.55045552 106.67435641 -307.33398438 103.95898438 C-301.6863166 97.03710718 -296.05696962 90.10689908 -290.5625 83.0625 C-286.36624925 77.68794576 -282.08203155 72.39070364 -277.75 67.125 C-276.9003064 66.09064819 -276.9003064 66.09064819 -276.03344727 65.03540039 C-274.36544994 63.01517029 -272.6850773 61.00599824 -271 59 C-270.39349609 58.2687793 -269.78699219 57.53755859 -269.16210938 56.78417969 C-268.55689453 56.06907227 -267.95167969 55.35396484 -267.328125 54.6171875 C-266.78575195 53.97120605 -266.24337891 53.32522461 -265.68457031 52.65966797 C-262.58587077 49.60677528 -259.7727181 48.74973523 -255.47852707 48.75390434 C-254.11850669 48.7479312 -254.11850669 48.7479312 -252.73101115 48.74183738 C-251.73879786 48.74766307 -250.74658456 48.75348875 -249.7243042 48.75949097 C-248.13884289 48.75692769 -248.13884289 48.75692769 -246.52135205 48.75431263 C-242.96826799 48.75100998 -239.41537144 48.76203433 -235.86230469 48.77294922 C-233.31987513 48.77351316 -230.77744524 48.7731971 -228.23501587 48.77206421 C-222.75549673 48.7716083 -217.27603833 48.77729289 -211.79653168 48.78853989 C-203.87408776 48.80479057 -195.95166687 48.81000245 -188.02920809 48.81251587 C-175.17570901 48.81689365 -162.3222353 48.83020501 -149.46875 48.84912109 C-136.98242317 48.86747774 -124.49610323 48.8816353 -112.00976562 48.89013672 C-111.24017166 48.89066217 -110.47057769 48.89118761 -109.6776627 48.89172898 C-105.8168549 48.89433905 -101.95604705 48.89686647 -98.09523916 48.89935279 C-66.06347433 48.92008788 -34.03174069 48.95531567 -2 49 C-2.91587053 47.24746426 -3.84084157 45.49968281 -4.76953125 43.75390625 C-5.54067261 42.29319702 -5.54067261 42.29319702 -6.32739258 40.80297852 C-9.31332847 35.79910609 -13.18540148 32.20973235 -18 29 C-17.45046669 25.32051608 -16.23295402 24.08898228 -13.3125 21.875 C-6.38315931 16.07571308 -2.81316705 8.43950114 0 0 Z " fill="#C38AE3" transform="translate(352,17)"/>
<path d="M0 0 C1.87434723 -0.04906494 1.87434723 -0.04906494 3.78656006 -0.09912109 C7.91673777 -0.19826739 12.04633316 -0.2651738 16.17724609 -0.32226562 C17.60528003 -0.34372584 19.03331322 -0.3652359 20.46134567 -0.38679504 C26.40622522 -0.47323519 32.35106366 -0.54816509 38.29641151 -0.59328461 C46.78727631 -0.65817198 55.27079831 -0.7906951 63.75889456 -1.018888 C69.74471254 -1.17426243 75.72857964 -1.2518768 81.7163595 -1.27296686 C85.28587113 -1.28751564 88.84753651 -1.33470473 92.41484451 -1.46537781 C114.00603164 -2.21873393 114.00603164 -2.21873393 119.93208313 2.74538803 C123.87670372 7.50963272 126.40523822 12.74169228 128.64494705 18.47426987 C129.80286797 21.33221367 131.32520793 23.84020869 133.02880859 26.40429688 C133.49416016 27.15324219 133.95951172 27.9021875 134.43896484 28.67382812 C135.12539063 29.77404297 135.12539063 29.77404297 135.82568359 30.89648438 C136.91457235 32.64887292 138.00309605 34.40148833 139.09130859 36.15429688 C139.65269531 37.05825195 140.21408203 37.96220703 140.79248047 38.89355469 C144.0668098 44.17802814 147.32006033 49.47547407 150.57568359 54.77148438 C154.8787166 61.76927393 159.18474208 68.76508914 163.51220703 75.74780273 C164.54798618 77.41970297 165.58250819 79.09238274 166.61572266 80.76586914 C169.3191933 85.14281671 172.03708491 89.50977557 174.78173828 93.86105347 C176.27103191 96.22562305 177.75235443 98.59513161 179.23266602 100.96533203 C180.30168105 102.67069397 181.38095438 104.36961178 182.46044922 106.06835938 C183.43788086 107.63650391 183.43788086 107.63650391 184.43505859 109.23632812 C185.30855957 110.62259399 185.30855957 110.62259399 186.19970703 112.03686523 C188.64752977 116.90167404 188.89284141 120.87961491 187.34179688 126.0546875 C187.04099213 127.08153656 186.74018738 128.10838562 186.43026733 129.16635132 C186.08895782 130.28385773 185.74764832 131.40136414 185.39599609 132.55273438 C184.8505421 134.39624217 184.3050911 136.23975084 183.75973701 138.08328819 C183.16550976 140.08304712 182.56503226 142.08083356 181.96276855 144.07818604 C180.67124396 148.36256055 179.39779019 152.65217707 178.12744141 156.94287109 C176.75091449 161.59001962 175.37364134 166.23693361 173.99108887 170.8822937 C168.88134465 188.05710602 163.88870606 205.26561226 158.89819336 222.47537231 C156.52154613 230.67038618 154.13925008 238.86375867 151.75760651 247.05732155 C150.4262215 251.63791786 149.09521558 256.21862432 147.76416016 260.79931641 C146.70135191 264.45671075 145.63852034 268.11409831 144.57568359 271.77148438 C144.31264938 272.67663536 144.04961517 273.58178635 143.77861023 274.51436615 C140.6581447 285.25230858 137.53683476 295.99000464 134.41329956 306.7270546 C133.209966 310.86354129 132.00697494 315.00012661 130.80505371 319.13702393 C124.15010169 342.04165091 117.39731349 364.91594294 110.57568359 387.77148438 C105.08507749 382.31340936 105.08507749 382.31340936 102.70068359 379.34570312 C102.19730469 378.72244141 101.69392578 378.09917969 101.17529297 377.45703125 C100.64742187 376.79767578 100.11955078 376.13832031 99.57568359 375.45898438 C98.41950994 374.02532905 97.26325775 372.59173706 96.10693359 371.15820312 C95.52041016 370.42907715 94.93388672 369.69995117 94.32958984 368.94873047 C91.58946465 365.54722205 88.83218739 362.15972187 86.07568359 358.77148438 C84.99746028 357.44474135 83.91933565 356.11791812 82.84130859 354.79101562 C82.30570313 354.13182129 81.77009766 353.47262695 81.21826172 352.79345703 C79.54019987 350.72780479 77.86258242 348.66179231 76.18505859 346.59570312 C71.490246 340.81412836 66.79512453 335.03299165 62.07568359 329.27148438 C56.79936825 322.83014319 51.55302332 316.36452798 46.3046875 309.90039062 C44.53503857 307.72143853 42.76447837 305.54322993 40.99365234 303.36523438 C40.41067383 302.64811279 39.82769531 301.93099121 39.22705078 301.19213867 C38.11455357 299.82370371 37.00193074 298.45537087 35.88916016 297.0871582 C34.89620919 295.86553815 33.90473156 294.64271841 32.91503906 293.41845703 C31.69182035 291.91429491 30.44917524 290.42598429 29.20458984 288.93945312 C27.57568359 286.77148438 27.57568359 286.77148438 27.57568359 284.77148438 C26.91568359 284.44148438 26.25568359 284.11148437 25.57568359 283.77148438 C23.71931027 281.73632711 21.91839363 279.68418507 20.13818359 277.58398438 C19.60177246 276.95468018 19.06536133 276.32537598 18.51269531 275.67700195 C14.51060796 270.95020593 10.65744067 266.12188593 6.85864258 261.23120117 C2.64181427 255.81490619 -1.71556064 250.52109179 -6.08959961 245.23144531 C-11.70580171 238.43904718 -17.26515181 231.60167008 -22.81542969 224.75537109 C-25.51594388 221.42541991 -28.22033436 218.09861967 -30.92431641 214.77148438 C-32.00766812 213.43816598 -33.09100146 212.10483265 -34.17431641 210.77148438 C-34.71056641 210.11148438 -35.24681641 209.45148438 -35.79931641 208.77148438 C-50.42431641 190.77148438 -65.04931641 172.77148438 -79.67431641 154.77148438 C-80.21137207 154.11067871 -80.74842773 153.44987305 -81.30175781 152.76904297 C-82.37768965 151.44444557 -83.45289325 150.1192563 -84.52734375 148.79345703 C-87.34303026 145.32109053 -90.17313686 141.86193393 -93.02587891 138.41992188 C-93.91049805 137.34677734 -93.91049805 137.34677734 -94.81298828 136.25195312 C-95.93722091 134.88871041 -97.06585629 133.52908168 -98.19970703 132.17382812 C-105.42431641 123.3873879 -105.42431641 123.3873879 -105.42431641 117.77148438 C-78.36431641 117.77148438 -51.30431641 117.77148438 -23.42431641 117.77148438 C-28.95995267 107.93035324 -34.51291576 98.14715091 -40.29931641 88.45898438 C-46.75852099 77.61123207 -53.13178033 66.71676429 -59.42431641 55.77148438 C-55.30056464 50.16596499 -50.99890688 44.74589586 -46.54931641 39.39648438 C-45.30270673 37.89040085 -44.05660907 36.38389337 -42.81103516 34.87695312 C-41.92617432 33.80646729 -41.92617432 33.80646729 -41.0234375 32.71435547 C-39.11510895 30.39580912 -37.23234543 28.05811357 -35.36181641 25.70898438 C-34.76498047 24.96261719 -34.16814453 24.21625 -33.55322266 23.44726562 C-32.34086396 21.92347534 -31.13076496 20.39786474 -29.92773438 18.86669922 C-28.22613427 16.70361437 -26.51319129 14.54985142 -24.79931641 12.39648438 C-24.26040771 11.70546631 -23.72149902 11.01444824 -23.16625977 10.30249023 C-22.64040283 9.64514893 -22.1145459 8.98780762 -21.57275391 8.31054688 C-21.11046387 7.7248291 -20.64817383 7.13911133 -20.171875 6.53564453 C-13.91166024 0.2159586 -8.66255753 0.12560564 0 0 Z " fill="#CB97E6" transform="translate(173.42431640625,65.228515625)"/>
<path d="M0 0 C1.87434723 -0.04906494 1.87434723 -0.04906494 3.78656006 -0.09912109 C7.91673777 -0.19826739 12.04633316 -0.2651738 16.17724609 -0.32226562 C17.60528003 -0.34372584 19.03331322 -0.3652359 20.46134567 -0.38679504 C26.40622522 -0.47323519 32.35106366 -0.54816509 38.29641151 -0.59328461 C46.78727631 -0.65817198 55.27079831 -0.7906951 63.75889456 -1.018888 C69.74471254 -1.17426243 75.72857964 -1.2518768 81.7163595 -1.27296686 C85.28587113 -1.28751564 88.84753651 -1.33470473 92.41484451 -1.46537781 C114.00603164 -2.21873393 114.00603164 -2.21873393 119.93208313 2.74538803 C123.87670372 7.50963272 126.40523822 12.74169228 128.64494705 18.47426987 C129.80286797 21.33221367 131.32520793 23.84020869 133.02880859 26.40429688 C133.49416016 27.15324219 133.95951172 27.9021875 134.43896484 28.67382812 C135.12539063 29.77404297 135.12539063 29.77404297 135.82568359 30.89648438 C136.91457235 32.64887292 138.00309605 34.40148833 139.09130859 36.15429688 C139.65269531 37.05825195 140.21408203 37.96220703 140.79248047 38.89355469 C144.0668098 44.17802814 147.32006033 49.47547407 150.57568359 54.77148438 C155.39707941 62.6122593 160.22712956 70.44747479 165.07568359 78.27148438 C166.6520288 80.81792661 168.22813134 83.36451892 169.80419922 85.91113281 C171.46192282 88.58779898 173.12173538 91.26316261 174.78173828 93.93841553 C176.26738767 96.33441306 177.75031805 98.73208581 179.23266602 101.13012695 C179.95633038 102.29959572 180.68108772 103.46838892 181.40698242 104.63647461 C182.41920092 106.26564204 183.42722024 107.89741617 184.43505859 109.52929688 C185.01739258 110.46918457 185.59972656 111.40907227 186.19970703 112.37744141 C187.57568359 114.77148438 187.57568359 114.77148438 188.57568359 117.77148438 C84.62568359 118.26648438 84.62568359 118.26648438 -21.42431641 118.77148438 C-19.11431641 126.69148438 -16.80431641 134.61148438 -14.42431641 142.77148438 C-11.42431641 153.27148438 -11.42431641 153.27148438 -9.97900391 158.34570312 C-7.17281202 168.16737472 -4.29400256 177.96821663 -1.42431641 187.77148438 C-0.76431641 187.77148438 -0.10431641 187.77148438 0.57568359 187.77148438 C0.97400391 186.62808594 1.37232422 185.4846875 1.78271484 184.30664062 C2.31726158 182.81553656 2.85245122 181.32466287 3.38818359 179.83398438 C3.64921875 179.07923828 3.91025391 178.32449219 4.17919922 177.546875 C4.89078446 175.58781933 5.72629916 173.67484949 6.57568359 171.77148438 C7.56568359 171.44148437 8.55568359 171.11148438 9.57568359 170.77148438 C9.85541016 171.65449219 10.13513672 172.5375 10.42333984 173.44726562 C15.05987742 187.32706141 21.80355789 197.85320732 33.57568359 206.77148438 C33.23434319 209.64127221 32.7462929 210.62179269 30.53662109 212.56054688 C29.25658203 213.46933594 29.25658203 213.46933594 27.95068359 214.39648438 C21.32036917 219.4784589 16.23549771 225.76634333 13.57568359 233.77148438 C13.7396537 243.60969049 17.50194077 253.13429815 20.41308594 262.45166016 C20.98521158 264.28473127 21.5541695 266.11879422 22.11987305 267.95385742 C22.66628897 269.72477169 23.22060161 271.49327204 23.78344727 273.2590332 C24.03199463 274.06493896 24.28054199 274.87084473 24.53662109 275.70117188 C24.76140137 276.41515137 24.98618164 277.12913086 25.21777344 277.86474609 C25.57568359 279.77148438 25.57568359 279.77148438 24.57568359 282.77148438 C19.00754076 276.28788285 13.51047718 269.76869995 8.26318359 263.02148438 C3.58162709 257.00463276 -1.23137963 251.10671288 -6.08935547 245.23168945 C-11.70570931 238.43926806 -17.26507988 231.60175881 -22.81542969 224.75537109 C-25.51594388 221.42541991 -28.22033436 218.09861967 -30.92431641 214.77148438 C-32.00766812 213.43816598 -33.09100146 212.10483265 -34.17431641 210.77148438 C-34.71056641 210.11148438 -35.24681641 209.45148438 -35.79931641 208.77148438 C-50.42431641 190.77148438 -65.04931641 172.77148438 -79.67431641 154.77148438 C-80.21137207 154.11067871 -80.74842773 153.44987305 -81.30175781 152.76904297 C-82.37768965 151.44444557 -83.45289325 150.1192563 -84.52734375 148.79345703 C-87.34303026 145.32109053 -90.17313686 141.86193393 -93.02587891 138.41992188 C-93.91049805 137.34677734 -93.91049805 137.34677734 -94.81298828 136.25195312 C-95.93722091 134.88871041 -97.06585629 133.52908168 -98.19970703 132.17382812 C-105.42431641 123.3873879 -105.42431641 123.3873879 -105.42431641 117.77148438 C-78.36431641 117.77148438 -51.30431641 117.77148438 -23.42431641 117.77148438 C-28.95995267 107.93035324 -34.51291576 98.14715091 -40.29931641 88.45898438 C-46.75852099 77.61123207 -53.13178033 66.71676429 -59.42431641 55.77148438 C-55.30056464 50.16596499 -50.99890688 44.74589586 -46.54931641 39.39648438 C-45.30270673 37.89040085 -44.05660907 36.38389337 -42.81103516 34.87695312 C-41.92617432 33.80646729 -41.92617432 33.80646729 -41.0234375 32.71435547 C-39.11510895 30.39580912 -37.23234543 28.05811357 -35.36181641 25.70898438 C-34.76498047 24.96261719 -34.16814453 24.21625 -33.55322266 23.44726562 C-32.34086396 21.92347534 -31.13076496 20.39786474 -29.92773438 18.86669922 C-28.22613427 16.70361437 -26.51319129 14.54985142 -24.79931641 12.39648438 C-24.26040771 11.70546631 -23.72149902 11.01444824 -23.16625977 10.30249023 C-22.64040283 9.64514893 -22.1145459 8.98780762 -21.57275391 8.31054688 C-21.11046387 7.7248291 -20.64817383 7.13911133 -20.171875 6.53564453 C-13.91166024 0.2159586 -8.66255753 0.12560564 0 0 Z " fill="#D8B0ED" transform="translate(173.42431640625,65.228515625)"/>
<path d="M0 0 C0.99 0.33 1.98 0.66 3 1 C4.17578125 3.44140625 4.17578125 3.44140625 5.3125 6.5625 C8.61417953 14.8858957 12.90467569 20.59403862 20 26 C19.45187039 29.70793558 18.16914498 30.98930877 15.25 33.25 C10.32271552 37.35459604 7.03187822 41.90436534 5 48 C6.16724861 48.00879936 6.16724861 48.00879936 7.358078 48.01777649 C14.70009174 48.07573738 22.04176743 48.14783308 29.38347912 48.23571491 C33.15773053 48.28039737 36.93187454 48.31965788 40.70629883 48.34643555 C44.35047178 48.37249018 47.99423095 48.41290709 51.63814735 48.46318626 C53.02671464 48.47984053 54.41535348 48.4913638 55.80400658 48.49761391 C57.7525102 48.50726972 59.70088242 48.53704261 61.64916992 48.56762695 C62.7572551 48.57873001 63.86534027 48.58983307 65.00700378 48.60127258 C75.52594396 50.00260741 82.48344859 62.4980697 88.56103516 70.33325195 C92.28731467 75.12921852 96.12379225 79.82465014 100 84.5 C104.69323541 90.16573617 109.2978957 95.88572355 113.81640625 101.69140625 C117.464851 106.36099005 121.22013828 110.93640885 125 115.5 C129.68726655 121.15914039 134.2904462 126.86920773 138.79882812 132.67163086 C143.18373629 138.29080349 147.73579616 143.76980176 152.31835938 149.22851562 C160 158.45173977 160 158.45173977 160 166 C110.83 166 61.66 166 11 166 C11 165.34 11 164.68 11 164 C10.01 163.67 9.02 163.34 8 163 C6.58056641 161.10839844 6.58056641 161.10839844 5.1015625 158.609375 C4.54654053 157.68302246 3.99151855 156.75666992 3.41967773 155.80224609 C2.82743408 154.79500488 2.23519043 153.78776367 1.625 152.75 C0.35885091 150.63234714 -0.908093 148.51516933 -2.17578125 146.3984375 C-2.81596191 145.32432617 -3.45614258 144.25021484 -4.11572266 143.14355469 C-6.88432821 138.52466831 -9.71898742 133.94802245 -12.5625 129.375 C-13.64066963 127.63674643 -14.71879465 125.89846519 -15.796875 124.16015625 C-16.32732422 123.30566895 -16.85777344 122.45118164 -17.40429688 121.57080078 C-20.04299128 117.31966062 -22.67818145 113.06635283 -25.3125 108.8125 C-25.84109619 107.95897949 -26.36969238 107.10545898 -26.91430664 106.22607422 C-31.96675643 98.06285906 -36.99877249 89.88709237 -42.02270508 81.70629883 C-45.29827807 76.37547997 -48.58593784 71.05308966 -51.90625 65.75 C-52.81697266 64.29207031 -52.81697266 64.29207031 -53.74609375 62.8046875 C-54.89077908 60.97421073 -56.03905704 59.1459743 -57.19140625 57.3203125 C-57.69542969 56.51335937 -58.19945312 55.70640625 -58.71875 54.875 C-59.38293945 53.81925781 -59.38293945 53.81925781 -60.06054688 52.7421875 C-61 51 -61 51 -61 49 C-41.53 49 -22.06 49 -2 49 C-6.77423185 40.24724161 -10.01923942 34.32050706 -18 29 C-17.45046669 25.32051608 -16.23295402 24.08898228 -13.3125 21.875 C-6.38315931 16.07571308 -2.81316705 8.43950114 0 0 Z " fill="#AF66DA" transform="translate(352,17)"/>
<path d="M0 0 C0.67358047 -0.00029205 1.34716095 -0.00058411 2.04115295 -0.00088501 C4.25966432 0.00050437 6.47783662 0.01604677 8.69628906 0.03173828 C10.23756731 0.03546981 11.77884793 0.03831612 13.32012939 0.04031372 C17.37093692 0.04793917 21.42160036 0.06757825 25.47235107 0.08972168 C29.60817516 0.11020359 33.7440226 0.11932045 37.87988281 0.12939453 C45.99062592 0.15082523 54.10125205 0.18494797 62.21191406 0.22705078 C61.21191406 2.22705078 61.21191406 2.22705078 59.05566406 3.37158203 C55.12186671 5.93827673 52.61652509 9.26151736 49.71191406 12.91455078 C49.1024292 13.66841064 48.49294434 14.42227051 47.86499023 15.19897461 C46.5978562 16.76706729 45.33380261 18.33765391 44.07275391 19.91064453 C42.32389837 22.08765074 40.5624265 24.25347398 38.79394531 26.41455078 C33.47993996 32.91093215 28.21624302 39.44503837 23.02441406 46.03955078 C22.33762573 46.91099731 22.33762573 46.91099731 21.63696289 47.80004883 C19.7336339 50.22883452 17.92473941 52.65781276 16.21191406 55.22705078 C24.67912746 69.99129396 33.22682692 84.7018776 41.93066406 99.32788086 C43.69451324 102.29225213 45.45422436 105.25902448 47.21191406 108.22705078 C47.65486816 108.96906738 48.09782227 109.71108398 48.55419922 110.47558594 C51.21191406 114.99591302 51.21191406 114.99591302 51.21191406 117.22705078 C1.71191406 117.22705078 -47.78808594 117.22705078 -98.78808594 117.22705078 C-98.78808594 110.45951571 -98.78808594 110.45951571 -95.47558594 106.16455078 C-94.74339844 105.21064453 -94.01121094 104.25673828 -93.25683594 103.27392578 C-90.24624312 99.55832073 -87.177661 95.89829381 -84.0637207 92.26904297 C-80.74389786 88.39355137 -77.54768625 84.44101343 -74.41308594 80.41455078 C-70.46686764 75.34871762 -66.46812995 70.33128169 -62.41308594 65.35205078 C-61.87071289 64.6860083 -61.32833984 64.01996582 -60.76953125 63.33374023 C-58.55509573 60.61670764 -56.33854146 57.90140719 -54.12207031 55.18603516 C-48.47440253 48.26415796 -42.84505556 41.33394987 -37.35058594 34.28955078 C-33.15433518 28.91499654 -28.87011748 23.61775442 -24.53808594 18.35205078 C-23.97162354 17.66248291 -23.40516113 16.97291504 -22.8215332 16.26245117 C-21.15353587 14.24222107 -19.47316324 12.23304902 -17.78808594 10.22705078 C-17.18158203 9.49583008 -16.57507813 8.76460937 -15.95019531 8.01123047 C-15.34498047 7.29612305 -14.73976563 6.58101563 -14.11621094 5.84423828 C-13.57383789 5.19825684 -13.03146484 4.55227539 -12.47265625 3.88671875 C-8.65712954 0.12759547 -5.24495704 -0.01914218 0 0 Z " fill="#814AA0" transform="translate(98.7880859375,65.77294921875)"/>
<path d="M0 0 C4.71784636 1.38660717 7.14220087 4.0290031 10.125 7.75 C10.83885864 8.6167334 10.83885864 8.6167334 11.56713867 9.50097656 C15.33760479 14.10470515 19.0087177 18.78882738 22.66259766 23.48535156 C26.35942681 28.22634315 30.16438175 32.87085931 34 37.5 C38.23650333 42.61469815 42.4208148 47.75890177 46.5 53 C51.23007552 59.07636169 56.10693757 65.02341351 61.01293945 70.95825195 C65.3972689 76.2626671 69.73320828 81.60035854 74 87 C74.45568359 87.57443848 74.91136719 88.14887695 75.38085938 88.74072266 C76.9019166 90.65876992 78.42009701 92.57906089 79.9375 94.5 C80.42307373 95.11254639 80.90864746 95.72509277 81.40893555 96.35620117 C85.33504145 101.34141004 86 102.29272509 86 109 C36.83 109 -12.34 109 -63 109 C-61.64602786 105.61506966 -60.41737884 102.79416179 -58.63671875 99.69140625 C-58.16919189 98.87414062 -57.70166504 98.056875 -57.2199707 97.21484375 C-56.71425537 96.33957031 -56.20854004 95.46429688 -55.6875 94.5625 C-55.15406982 93.634375 -54.62063965 92.70625 -54.07104492 91.75 C-49.2895597 83.45306578 -44.41946008 75.20932632 -39.53515625 66.97265625 C-35.58470913 60.30718678 -31.66635792 53.62302464 -27.75 46.9375 C-27.03744454 45.72151128 -26.32487941 44.50552822 -25.61230469 43.28955078 C-22.20950238 37.48210151 -18.80867533 31.67349915 -15.40963745 25.86384583 C-13.83928638 23.18011835 -12.26826107 20.49678591 -10.69714355 17.81350708 C-9.94573934 16.5297538 -9.19467668 15.24580054 -8.44396973 13.9616394 C-7.4022557 12.17968168 -6.3594468 10.39836899 -5.31640625 8.6171875 C-4.72287354 7.60253418 -4.12934082 6.58788086 -3.51782227 5.54248047 C-2.39616846 3.66361563 -1.21379765 1.82069647 0 0 Z " fill="#9858BD" transform="translate(426,74)"/>
<path d="M0 0 C27.39 0 54.78 0 83 0 C86.37414966 8.99773243 86.37414966 8.99773243 87.578125 13.1875 C87.84842529 14.12158691 88.11872559 15.05567383 88.3972168 16.01806641 C88.67863525 17.00210449 88.96005371 17.98614258 89.25 19 C89.86578332 21.13284198 90.48167184 23.26565359 91.09765625 25.3984375 C91.41105957 26.48737305 91.72446289 27.57630859 92.04736328 28.69824219 C93.58027766 34.01119301 95.13531229 39.3176553 96.6875 44.625 C99.15438075 53.07507366 101.59941113 61.53084176 104 70 C104.66 70 105.32 70 106 70 C106.39832031 68.85660156 106.79664063 67.71320313 107.20703125 66.53515625 C107.74157799 65.04405219 108.27676763 63.55317849 108.8125 62.0625 C109.20405273 60.93038086 109.20405273 60.93038086 109.60351562 59.77539062 C110.31510087 57.81633495 111.15061557 55.90336512 112 54 C112.99 53.67 113.98 53.34 115 53 C115.27972656 53.88300781 115.55945313 54.76601562 115.84765625 55.67578125 C120.48419383 69.55557703 127.22787429 80.08172295 139 89 C138.6586596 91.86978783 138.1706093 92.85030831 135.9609375 94.7890625 C135.10757813 95.39492188 134.25421875 96.00078125 133.375 96.625 C126.74468557 101.70697453 121.65981412 107.99485896 119 116 C119.1639701 125.83820612 122.92625717 135.36281378 125.83740234 144.68017578 C126.40952799 146.51324689 126.97848591 148.34730985 127.54418945 150.18237305 C128.09060538 151.95328731 128.64491802 153.72178767 129.20776367 155.48754883 C129.45631104 156.29345459 129.7048584 157.09936035 129.9609375 157.9296875 C130.18571777 158.64366699 130.41049805 159.35764648 130.64208984 160.09326172 C131 162 131 162 130 165 C124.43185716 158.51639848 118.93479359 151.99721557 113.6875 145.25 C109.0059435 139.23314838 104.19293678 133.33522851 99.33496094 127.46020508 C93.7186071 120.66778368 88.15923653 113.83027443 82.60888672 106.98388672 C79.90837253 103.65393553 77.20398205 100.3271353 74.5 97 C73.41664829 95.6666816 72.33331495 94.33334827 71.25 93 C70.71375 92.34 70.1775 91.68 69.625 91 C55 73 40.375 55 25.75 37 C24.9444165 36.0087915 24.9444165 36.0087915 24.12255859 34.99755859 C23.04662676 33.6729612 21.97142316 32.34777192 20.89697266 31.02197266 C18.08128615 27.54960615 15.25117954 24.09044955 12.3984375 20.6484375 C11.80869141 19.93300781 11.21894531 19.21757812 10.61132812 18.48046875 C9.48709549 17.11722603 8.35846012 15.7575973 7.22460938 14.40234375 C0 5.61590352 0 5.61590352 0 0 Z " fill="#E4C9F2" transform="translate(68,183)"/>
<path d="M0 0 C1.38147154 0.0074687 2.76295374 0.01315866 4.1444397 0.01715088 C7.76472688 0.03235811 11.384363 0.07159583 15.00439453 0.1159668 C18.70466303 0.15702669 22.40503766 0.17518463 26.10546875 0.1953125 C33.35446214 0.23809633 40.60292078 0.30628621 47.8515625 0.390625 C43.47137404 8.14585958 39.05329702 15.83940459 34.2265625 23.328125 C29.70129754 30.42209835 25.27639497 37.5703425 20.9140625 44.765625 C14.82223899 54.80989656 8.66099649 64.8088846 2.46484375 74.7890625 C0.83016166 77.42513579 -0.80038115 80.06372612 -2.4296875 82.703125 C-9.59775224 94.31134854 -16.83879843 105.87101656 -24.1484375 117.390625 C-26.57361922 114.29403149 -28.58272721 111.07273733 -30.5625 107.67578125 C-30.88987656 107.11573395 -31.21725311 106.55568665 -31.55455017 105.97866821 C-32.62977909 104.13813291 -33.70159232 102.29563253 -34.7734375 100.453125 C-35.52179677 99.17082964 -36.27041723 97.88868668 -37.01928711 96.60668945 C-38.58824082 93.92034186 -40.15604452 91.23332778 -41.72314453 88.54589844 C-45.32889234 82.36498089 -48.95059251 76.19341356 -52.57122803 70.02120972 C-54.39055347 66.91945128 -56.20892337 63.81713284 -58.02734375 60.71484375 C-58.6313501 59.68447998 -59.23535645 58.65411621 -59.85766602 57.5925293 C-60.28362061 56.86590088 -60.7095752 56.13927246 -61.1484375 55.390625 C-57.02468574 49.78510562 -52.72302797 44.36503649 -48.2734375 39.015625 C-47.02682782 37.50954147 -45.78073016 36.00303399 -44.53515625 34.49609375 C-43.94524902 33.78243652 -43.3553418 33.0687793 -42.74755859 32.33349609 C-40.83923005 30.01494975 -38.95646652 27.67725419 -37.0859375 25.328125 C-36.48910156 24.58175781 -35.89226562 23.83539063 -35.27734375 23.06640625 C-34.06498506 21.54261597 -32.85488605 20.01700536 -31.65185547 18.48583984 C-29.95025536 16.322755 -28.23731238 14.16899205 -26.5234375 12.015625 C-25.98452881 11.32460693 -25.44562012 10.63358887 -24.89038086 9.92163086 C-24.36452393 9.26428955 -23.83866699 8.60694824 -23.296875 7.9296875 C-22.83458496 7.34396973 -22.37229492 6.75825195 -21.89599609 6.15478516 C-15.17381666 -0.63125404 -9.25602428 -0.14711548 0 0 Z " fill="#BD80E0" transform="translate(175.1484375,65.609375)"/>
<path d="M0 0 C3.38541338 3.21260806 6.22669763 6.74611592 9.0625 10.4375 C12.83654375 15.29923989 16.68973845 20.07042795 20.6875 24.75 C24.56417154 29.28875783 28.34894656 33.88609627 32.05859375 38.5625 C34.82628803 42.03743206 37.64808384 45.46715285 40.46484375 48.90234375 C43.40348632 52.48906091 46.32687196 56.08813563 49.25 59.6875 C49.80131592 60.36635254 50.35263184 61.04520508 50.9206543 61.74462891 C52.0506661 63.13619181 53.18062995 64.52779366 54.31054688 65.91943359 C57.57186197 69.93575256 60.83464444 73.95087974 64.09765625 77.96582031 C66.95746865 81.48492037 69.81570535 85.00528628 72.671875 88.52734375 C73.27064453 89.26533203 73.86941406 90.00332031 74.48632812 90.76367188 C75.64173538 92.18777849 76.79669991 93.61224444 77.95117188 95.03710938 C80.37433002 98.10799159 80.37433002 98.10799159 83 101 C82.66801523 107.63969549 81.08388728 113.47928252 79.03515625 119.7890625 C77.9435547 123.01714 77.9435547 123.01714 77.203125 126.47265625 C75.74096227 130.75945151 73.64230558 133.44959378 70.6875 136.8125 C70.21376953 137.38419922 69.74003906 137.95589844 69.25195312 138.54492188 C65.1551772 143.31421915 62.25025293 144.8214085 56.0625 145.3125 C51.04268446 145.44649918 47.23781984 143.11363727 43.5859375 139.828125 C37.71770194 132.98530615 35.44528632 127.0371414 33.54394531 118.31298828 C32.46860574 113.74038188 31.0843483 109.25237536 29.75 104.75 C29.44989014 103.72600098 29.14978027 102.70200195 28.84057617 101.64697266 C27.27982123 96.3221404 25.70475951 91.00165351 24.12109375 85.68359375 C19.87515417 71.42264559 15.73055348 57.13632984 11.66113281 42.82421875 C9.74595506 36.09171362 7.82172486 29.36285028 5.84375 22.6484375 C5.51898682 21.54588623 5.19422363 20.44333496 4.85961914 19.30737305 C4.26557369 17.29749568 3.66862959 15.28847164 3.06811523 13.28051758 C1.76344001 8.8670176 0.61259764 4.57557496 0 0 Z " fill="#BD80E1" transform="translate(200,350)"/>
<path d="M0 0 C3.77758655 4.36011158 6.45515738 9.11300381 9.25 14.125 C14.88562353 24.11623728 20.70017004 33.99208135 26.56738281 43.84814453 C28.3815314 46.89683432 30.19176757 49.9477986 32 53 C32.44730469 53.74926758 32.89460938 54.49853516 33.35546875 55.27050781 C36 59.7685307 36 59.7685307 36 62 C8.94 62 -18.12 62 -46 62 C-45.05372353 56.32234117 -43.9433612 53.99733121 -40.5 49.8125 C-40.04858643 49.24571533 -39.59717285 48.67893066 -39.13208008 48.0949707 C-37.7664328 46.38677536 -36.38545359 44.69214932 -35 43 C-34.27167969 42.10023438 -33.54335937 41.20046875 -32.79296875 40.2734375 C-30.53990763 37.50622699 -28.26961083 34.75365105 -26 32 C-23.87055154 29.39944705 -21.74663727 26.79442846 -19.625 24.1875 C-18.80201416 23.17635132 -18.80201416 23.17635132 -17.96240234 22.14477539 C-13.72397378 16.92302641 -9.55217489 11.65164384 -5.42626953 6.34057617 C-3.69535048 4.11873551 -1.99391532 1.99391532 0 0 Z " fill="#9857BD" transform="translate(114,121)"/>
<path d="M0 0 C1.32 0 2.64 0 4 0 C4.29132813 0.96679688 4.58265625 1.93359375 4.8828125 2.9296875 C10.06985436 19.62843546 18.61161044 31.72743818 33 42 C32.69606597 45.21064853 32.38288647 46.63950455 29.99609375 48.88671875 C29.15175781 49.48097656 28.30742187 50.07523437 27.4375 50.6875 C14.62833378 60.46339719 8.55609545 73.88448331 4 89 C2.12109375 88.83984375 2.12109375 88.83984375 0 88 C-1.08984375 85.62890625 -1.08984375 85.62890625 -1.9375 82.5625 C-6.45776583 67.71773594 -14.53457455 54.21062527 -28 46 C-27.67804045 42.95177011 -27.43440449 41.41482832 -25.1796875 39.26171875 C-24.03886719 38.48248047 -24.03886719 38.48248047 -22.875 37.6875 C-9.72122472 28.0149933 -4.27376188 15.24182334 0 0 Z " fill="#FDE87D" transform="translate(400,281)"/>
<path d="M0 0 C0.67343445 -0.00014603 1.3468689 -0.00029205 2.04071045 -0.0004425 C4.26455924 0.00025364 6.48832406 0.00803207 8.7121582 0.01586914 C10.25486709 0.01773438 11.79757657 0.01915778 13.34028625 0.02015686 C17.39927813 0.0239737 21.45823418 0.03379688 25.51721191 0.04486084 C29.65966304 0.05509287 33.80211996 0.05965832 37.94458008 0.06469727 C46.07154964 0.07541989 54.19849009 0.09248632 62.32543945 0.11352539 C61.32543945 2.11352539 61.32543945 2.11352539 59.16918945 3.25805664 C55.2353921 5.82475134 52.73005048 9.14799197 49.82543945 12.80102539 C49.21595459 13.55488525 48.60646973 14.30874512 47.97851562 15.08544922 C46.71138159 16.6535419 45.447328 18.22412852 44.1862793 19.79711914 C42.43742376 21.97412535 40.67595189 24.13994858 38.9074707 26.30102539 C32.47542241 34.16308087 32.47542241 34.16308087 26.20825195 42.15649414 C25.71156006 42.80142822 25.21486816 43.4463623 24.703125 44.11083984 C23.77054306 45.32672181 22.84446797 46.54763386 21.92626953 47.77441406 C19.61232213 50.79083378 17.77417507 52.56652243 14.32543945 54.11352539 C14.03000244 53.59258301 13.73456543 53.07164063 13.43017578 52.53491211 C7.43889147 41.98206873 1.40035244 31.45715098 -4.73706055 20.98852539 C-5.28450928 20.04734863 -5.83195801 19.10617188 -6.39599609 18.13647461 C-6.91202393 17.26007324 -7.42805176 16.38367188 -7.9597168 15.48071289 C-8.4122583 14.70840332 -8.8647998 13.93609375 -9.33105469 13.14038086 C-11.12093526 10.44011037 -12.76681323 8.56739905 -15.67456055 7.11352539 C-14.74350265 6.12823111 -13.80443573 5.15050095 -12.86206055 4.17602539 C-12.33999023 3.63075195 -11.81791992 3.08547852 -11.2800293 2.52368164 C-7.90942937 -0.43686963 -4.26343626 -0.00776582 0 0 Z " fill="#9857BD" transform="translate(98.674560546875,65.886474609375)"/>
<path d="M0 0 C0.66 0 1.32 0 2 0 C2.27972656 0.88300781 2.55945313 1.76601562 2.84765625 2.67578125 C7.48419383 16.55557703 14.22787429 27.08172295 26 36 C25.6586596 38.86978783 25.1706093 39.85030831 22.9609375 41.7890625 C22.10757813 42.39492188 21.25421875 43.00078125 20.375 43.625 C11.94979929 50.12444055 7.40396098 58.04469704 4 68 C3.5875 69.19625 3.175 70.3925 2.75 71.625 C2.5025 72.40875 2.255 73.1925 2 74 C1.01 74 0.02 74 -1 74 C-1.14695313 73.40574219 -1.29390625 72.81148438 -1.4453125 72.19921875 C-5.29464346 57.97439226 -13.35720537 46.95599587 -25 38 C-23.92594397 34.7778319 -22.83972744 33.89533221 -19.9375 32 C-10.18328744 25.27365759 -5.72463342 14.98106793 -2.09375 4.17578125 C-1 1 -1 1 0 0 Z " fill="#FDE87E" transform="translate(181,236)"/>
<path d="M0 0 C0.99 0.33 1.98 0.66 3 1 C4.17578125 3.44140625 4.17578125 3.44140625 5.3125 6.5625 C8.61417953 14.8858957 12.90467569 20.59403862 20 26 C19.45187039 29.70793558 18.16914498 30.98930877 15.25 33.25 C8.51899432 38.89923691 5.31489835 45.99979839 2 54 C1.34 54 0.68 54 0 54 C-0.49628906 52.92621094 -0.99257813 51.85242188 -1.50390625 50.74609375 C-5.76683976 41.74293024 -9.53049655 34.64633563 -18 29 C-17.45046669 25.32051608 -16.23295402 24.08898228 -13.3125 21.875 C-6.38315931 16.07571308 -2.81316705 8.43950114 0 0 Z " fill="#FDE87C" transform="translate(352,17)"/>
<path d="M0 0 C2.93200474 2.85276137 5.64315404 5.65079784 8 9 C7.48050781 9.58007812 6.96101563 10.16015625 6.42578125 10.7578125 C2.53880749 15.1117979 -1.29770995 19.487834 -5 24 C-6.14184472 20.6252898 -5.84408845 18.60566936 -4.78515625 15.234375 C-4.37426758 13.90019531 -4.37426758 13.90019531 -3.95507812 12.5390625 C-3.66052734 11.61867188 -3.36597656 10.69828125 -3.0625 9.75 C-2.77181641 8.81414062 -2.48113281 7.87828125 -2.18164062 6.9140625 C-1.46343503 4.6063855 -0.73596262 2.30206318 0 0 Z " fill="#B067DB" transform="translate(283,453)"/>
</svg>
