<?xml version="1.0" encoding="UTF-8"?>
<svg version="1.1" xmlns="http://www.w3.org/2000/svg" width="512" height="512">
<path d="M0 0 C7.60409906 10.13879874 4.0625 22.27088885 4.0625 34.75 C59.8325 34.75 115.6025 34.75 173.0625 34.75 C173.0625 26.17 173.0625 17.59 173.0625 8.75 C176.77601351 0.08513514 176.77601351 0.08513514 180.0625 -2.25 C184.47604908 -3.90400966 188.13185926 -4.37408543 192.8125 -3.75 C197.36736896 -1.64775279 199.7958851 1.2167702 202.0625 5.75 C202.14809118 7.92824961 202.16963412 10.10915255 202.16015625 12.2890625 C202.15693359 13.59101563 202.15371094 14.89296875 202.15039062 16.234375 C202.14203466 17.61458399 202.13356971 18.99479232 202.125 20.375 C202.11998501 21.76301926 202.1154221 23.15104022 202.11132812 24.5390625 C202.09950976 27.94275132 202.08303434 31.34635439 202.0625 34.75 C202.89806931 34.74111755 203.73363861 34.73223511 204.5945282 34.7230835 C212.52242309 34.64247395 220.45017761 34.58180226 228.37839031 34.54275131 C232.45304228 34.52199889 236.52735172 34.49391163 240.60180664 34.44824219 C244.54408377 34.4043378 248.48603436 34.38077044 252.42853737 34.37049103 C253.92224064 34.36317866 255.41592885 34.34890284 256.90949059 34.32707977 C272.58715079 34.10740655 284.89799169 37.157357 296.50390625 48.0390625 C310.60439603 62.67383772 310.37199661 80.49764145 310.28955078 99.59716797 C310.28898538 101.45142613 310.28930573 103.30568473 310.29043579 105.15994263 C310.29100529 110.15073005 310.27931681 115.14141965 310.26528788 120.13218451 C310.25271277 125.36384416 310.2516047 130.59550652 310.24923706 135.82717896 C310.2430421 145.71487221 310.22665835 155.60252078 310.20653808 165.49019444 C310.18411705 176.75511108 310.1731701 188.02002994 310.16314721 199.28496337 C310.1422902 222.44000027 310.10715313 245.59499762 310.0625 268.75 C310.81990479 268.88486816 311.57730957 269.01973633 312.35766602 269.15869141 C333.11442501 273.69636361 352.59072212 294.74245396 363.73535156 311.59619141 C379.60200837 337.3459424 384.98680605 369.61851931 378.03735352 399.1706543 C369.94407867 429.39696969 350.84734002 453.90133663 323.92480469 469.70214844 C298.69242748 483.89949544 267.8846404 487.47248466 239.9375 480.0625 C211.06823728 470.94589072 186.91910309 453.58622914 171.5546875 427.15625 C169.0625 422.34615385 169.0625 422.34615385 169.0625 419.75 C168.50594496 419.75151888 167.94938993 419.75303776 167.37596959 419.75460267 C134.36597333 419.84417876 101.35600762 419.91277842 68.345917 419.95426132 C64.37945553 419.95926395 60.41299431 419.96444126 56.4465332 419.96972656 C55.6569057 419.9707758 54.8672782 419.97182505 54.0537226 419.97290608 C41.28002592 419.99029577 28.5064015 420.02182551 15.73274764 420.05861118 C2.61890512 420.09606065 -10.49489964 420.11824431 -23.60879344 420.12635398 C-31.69618823 420.13183347 -39.78337879 420.14911931 -47.87071069 420.18166587 C-54.07948998 420.20537462 -60.28811462 420.20780974 -66.49693298 420.20243073 C-69.03855329 420.20352929 -71.58018148 420.21146083 -74.1217556 420.2268219 C-77.59954334 420.2468067 -81.07646657 420.24190736 -84.55427551 420.23101807 C-85.55333556 420.24266943 -86.5523956 420.2543208 -87.58173019 420.26632524 C-100.40584544 420.15824736 -111.74414143 414.54364733 -120.9375 405.75 C-127.19858259 397.73581429 -132.0490122 388.7161448 -132.07451439 378.40588474 C-132.07958893 377.31563482 -132.08466347 376.22538489 -132.08989179 375.10209709 C-132.09038955 373.9047492 -132.09088731 372.70740131 -132.09140015 371.47377014 C-132.0957824 370.20137291 -132.10016465 368.92897568 -132.1046797 367.61802095 C-132.11663407 364.08346462 -132.12229103 360.54892192 -132.12686086 357.01434934 C-132.13282142 353.20294704 -132.14443028 349.391561 -132.15515137 345.58016968 C-132.17966729 336.37294936 -132.19430253 327.16572366 -132.20721143 317.95848075 C-132.21092434 315.3568762 -132.21489751 312.75527218 -132.2189641 310.15366817 C-132.24420461 293.99066274 -132.26625313 277.82765644 -132.27869225 261.66463566 C-132.28162185 257.92119913 -132.28458352 254.17776263 -132.28759766 250.43432617 C-132.28834371 249.50393579 -132.28908976 248.57354541 -132.28985842 247.61496138 C-132.30250357 232.55370028 -132.33571557 217.49255746 -132.37739949 202.43135161 C-132.41986615 186.96016164 -132.44339285 171.48903214 -132.44861281 156.01778406 C-132.45202186 147.33462648 -132.46371694 138.65165364 -132.49671555 129.96855354 C-132.5247825 122.57108468 -132.53568642 115.17383843 -132.52452008 107.77632046 C-132.51935008 104.00548301 -132.52211092 100.23511125 -132.54698563 96.46434212 C-132.57379665 92.365603 -132.56136143 88.26787874 -132.54550171 84.16908264 C-132.5593838 82.99181124 -132.57326588 81.81453984 -132.58756864 80.60159355 C-132.45871678 67.0274691 -127.4126844 56.44321062 -118.0625 46.8203125 C-106.31532465 35.78365179 -93.47799689 34.44408634 -78.0625 34.5546875 C-76.52693873 34.55842328 -74.99137506 34.56126758 -73.45581055 34.56326294 C-69.43794025 34.57085497 -65.42021734 34.59046475 -61.40240479 34.6126709 C-57.29302971 34.63322541 -53.18363055 34.64228509 -49.07421875 34.65234375 C-41.02857863 34.67371537 -32.98305771 34.707797 -24.9375 34.75 C-24.9689209 33.47938721 -24.9689209 33.47938721 -25.00097656 32.18310547 C-25.06944055 29.01859607 -25.11943987 25.85446609 -25.15722656 22.68945312 C-25.17725319 21.32376632 -25.20448332 19.95816431 -25.23925781 18.59277344 C-25.28816432 16.62212898 -25.30841347 14.65084017 -25.328125 12.6796875 C-25.3595459 10.90440674 -25.3595459 10.90440674 -25.39160156 9.09326172 C-24.73837678 4.28398205 -22.50203611 1.2135983 -19 -2.0625 C-12.69443994 -5.69297397 -5.60243089 -4.29122366 0 0 Z " fill="#F7F6F7" transform="translate(131.9375,16.25)"/>
<path d="M0 0 C0.83273437 0.28488281 1.66546875 0.56976563 2.5234375 0.86328125 C15.82068134 5.74754396 26.63876407 13.53487096 37 23 C37.72703125 23.64453125 38.4540625 24.2890625 39.203125 24.953125 C57.29677074 41.86994825 69.59771411 67.71590552 71.22338867 92.390625 C72.33740989 127.8073169 63.96569803 157.18998346 39.4921875 183.46484375 C19.33292208 204.20461157 -9.62143005 215.56974272 -38.30078125 216.0703125 C-70.45346377 215.92236039 -98.93896227 203.61751149 -121.5300293 180.83178711 C-142.16285745 159.31559628 -151.40263046 130.14961953 -151.30493164 100.72021484 C-151.12960551 92.93036583 -149.79748913 85.56346076 -148 78 C-147.73316406 76.82953125 -147.46632813 75.6590625 -147.19140625 74.453125 C-140.17728223 46.89541106 -120.84695011 23.13771497 -96.875 8.3125 C-67.38410234 -9.18994789 -32.07017843 -11.52936167 0 0 Z " fill="#CEEEFB" transform="translate(441,284)"/>
<path d="M0 0 C7.60409906 10.13879874 4.0625 22.27088885 4.0625 34.75 C59.8325 34.75 115.6025 34.75 173.0625 34.75 C173.0625 26.17 173.0625 17.59 173.0625 8.75 C176.77601351 0.08513514 176.77601351 0.08513514 180.0625 -2.25 C184.47604908 -3.90400966 188.13185926 -4.37408543 192.8125 -3.75 C197.36736896 -1.64775279 199.7958851 1.2167702 202.0625 5.75 C202.14809118 7.92824961 202.16963412 10.10915255 202.16015625 12.2890625 C202.15693359 13.59101563 202.15371094 14.89296875 202.15039062 16.234375 C202.14203466 17.61458399 202.13356971 18.99479232 202.125 20.375 C202.11998501 21.76301926 202.1154221 23.15104022 202.11132812 24.5390625 C202.09950976 27.94275132 202.08303434 31.34635439 202.0625 34.75 C202.89806931 34.74111755 203.73363861 34.73223511 204.5945282 34.7230835 C212.52242309 34.64247395 220.45017761 34.58180226 228.37839031 34.54275131 C232.45304228 34.52199889 236.52735172 34.49391163 240.60180664 34.44824219 C244.54408377 34.4043378 248.48603436 34.38077044 252.42853737 34.37049103 C253.92224064 34.36317866 255.41592885 34.34890284 256.90949059 34.32707977 C272.58715079 34.10740655 284.89799169 37.157357 296.50390625 48.0390625 C314.77052598 66.99782762 309.0625 86.31662741 309.0625 113.75 C163.5325 113.75 18.0025 113.75 -131.9375 113.75 C-131.9375 61.1 -131.9375 61.1 -118.0625 46.8203125 C-106.31532465 35.78365179 -93.47799689 34.44408634 -78.0625 34.5546875 C-76.52693873 34.55842328 -74.99137506 34.56126758 -73.45581055 34.56326294 C-69.43794025 34.57085497 -65.42021734 34.59046475 -61.40240479 34.6126709 C-57.29302971 34.63322541 -53.18363055 34.64228509 -49.07421875 34.65234375 C-41.02857863 34.67371537 -32.98305771 34.707797 -24.9375 34.75 C-24.9689209 33.47938721 -24.9689209 33.47938721 -25.00097656 32.18310547 C-25.06944055 29.01859607 -25.11943987 25.85446609 -25.15722656 22.68945312 C-25.17725319 21.32376632 -25.20448332 19.95816431 -25.23925781 18.59277344 C-25.28816432 16.62212898 -25.30841347 14.65084017 -25.328125 12.6796875 C-25.3595459 10.90440674 -25.3595459 10.90440674 -25.39160156 9.09326172 C-24.73837678 4.28398205 -22.50203611 1.2135983 -19 -2.0625 C-12.69443994 -5.69297397 -5.60243089 -4.29122366 0 0 Z " fill="#E4827F" transform="translate(131.9375,16.25)"/>
<path d="M0 0 C145.53 0 291.06 0 441 0 C441 0.33 441 0.66 441 1 C313.62 1 186.24 1 55 1 C55 10.9 55 20.8 55 31 C56.32 31.33 57.64 31.66 59 32 C58.154375 32.07476562 57.30875 32.14953125 56.4375 32.2265625 C47.65967674 33.24399201 42.06836955 34.97316745 36.44140625 41.92578125 C33.58582614 46.09185421 31.90266603 49.84129942 32 55 C33.389089 58.04913936 33.389089 58.04913936 36 60 C39.50226752 60.42884908 41.65521839 60.1149272 45 59 C45.268125 57.9275 45.53625 56.855 45.8125 55.75 C47.29826859 51.05809917 48.78315962 49.49886837 53 47 C55.92880304 46.62826731 58.24444062 46.95277043 61 48 C63.5625 50.0625 63.5625 50.0625 65 53 C65.72873746 66.8460117 51.46533886 80.63101267 43.48095703 90.96630859 C42.05492374 92.82038758 40.65089149 94.68938933 39.25 96.5625 C38.81969482 97.1095459 38.38938965 97.6565918 37.94604492 98.22021484 C35.82149462 101.09308141 34.98709492 103.09141101 34.484375 106.65234375 C34.77360941 109.98393744 34.77360941 109.98393744 36.484375 112.390625 C39.95980469 114.61403654 43.24270809 114.67211977 47.25 114.75 C48.36761719 114.79447266 48.36761719 114.79447266 49.5078125 114.83984375 C51.33796672 114.9102343 53.16898769 114.95741832 55 115 C55.09890664 119.35988072 55.17148376 123.71916673 55.21972656 128.07983398 C55.23983759 129.56302261 55.26713074 131.04613199 55.30175781 132.52905273 C55.35030352 134.66149435 55.37297195 136.79288777 55.390625 138.92578125 C55.41157227 140.20880127 55.43251953 141.49182129 55.45410156 142.8137207 C55.30424805 143.86519287 55.15439453 144.91666504 55 146 C54.34290039 146.45205811 53.68580078 146.90411621 53.00878906 147.36987305 C50.84966798 148.77264106 50.84966798 148.77264106 50.61651611 150.81147766 C50.46982616 153.26753288 50.44590202 155.69582905 50.46875 158.15625 C50.4649231 159.05492798 50.46109619 159.95360596 50.45715332 160.8795166 C50.45443179 162.77922689 50.46180986 164.6789745 50.47851562 166.57861328 C50.49992245 169.48945514 50.4787228 172.39782882 50.453125 175.30859375 C50.45576823 177.15365129 50.46089312 178.99870729 50.46875 180.84375 C50.46065308 181.71567993 50.45255615 182.58760986 50.44421387 183.48596191 C50.47911722 185.73081652 50.53613893 187.80296277 51 190 C52.94686316 191.68200282 52.94686316 191.68200282 55 193 C55.51757812 195.93920898 55.51757812 195.93920898 55.53125 199.49609375 C55.53898437 201.41711914 55.53898437 201.41711914 55.546875 203.37695312 C55.53849609 204.043479 55.53011719 204.71000488 55.52148438 205.39672852 C55.50010195 207.42781558 55.52126308 209.45535221 55.546875 211.48632812 C55.54171875 212.76830078 55.5365625 214.05027344 55.53125 215.37109375 C55.52673828 216.54599365 55.52222656 217.72089355 55.51757812 218.93139648 C55 222 55 222 52.99121094 223.81567383 C49.80991952 227.30549902 50.50475637 231.02726559 50.609375 235.578125 C50.61786469 236.96798615 50.61786469 236.96798615 50.62652588 238.38592529 C50.64889079 241.34114562 50.69908738 244.29514705 50.75 247.25 C50.77006485 249.2551908 50.78831565 251.26040064 50.8046875 253.265625 C50.848756 258.17755194 50.91778445 263.08856942 51 268 C54.85071751 269.2835725 58.48789165 269.14288486 62.5 269.1328125 C63.74813477 269.13424759 63.74813477 269.13424759 65.02148438 269.13571167 C66.77994869 269.13639187 68.53841552 269.13454872 70.296875 269.13037109 C72.98964066 269.12502058 75.68223953 269.13032148 78.375 269.13671875 C80.0833337 269.13605794 81.7916673 269.13477672 83.5 269.1328125 C84.70946289 269.13584885 84.70946289 269.13584885 85.94335938 269.13894653 C89.2190477 269.12519532 91.87044163 269.04318612 95 268 C97.29532611 267.98133816 99.59135343 268.03149089 101.88525391 268.11450195 C103.37729735 268.16281623 104.86935342 268.21074179 106.36141968 268.25834656 C107.57100908 268.29946847 107.57100908 268.29946847 108.80503464 268.34142113 C135.96881509 269.24128949 163.14065566 269.18773086 190.31612134 269.18510926 C195.76261268 269.18546787 201.2090409 269.19716906 206.65551221 269.2110464 C212.63672018 269.22572773 218.61788129 269.22929076 224.59910965 269.22869301 C227.10840846 269.22986581 229.61770806 269.23424787 232.12699509 269.24202538 C235.60996566 269.25184919 239.09270919 269.24894232 242.57568359 269.24291992 C243.58962692 269.24853943 244.60357025 269.25415894 245.64823914 269.25994873 C256.68886483 269.31241762 256.68886483 269.31241762 266.5625 265.125 C268.89641002 261.67487214 269.13414664 258.2680474 269.39453125 254.17578125 C271.50140054 224.20827005 279.97340956 197.04217741 300 174 C300.70898438 173.16984375 301.41796875 172.3396875 302.1484375 171.484375 C323.9444327 146.55281558 354.01117987 130.64523867 387 127 C391.58800723 126.72445494 396.15448496 126.66610174 400.75 126.6875 C402.57881714 126.69269653 402.57881714 126.69269653 404.44458008 126.69799805 C417.50332882 126.85462342 428.54979338 128.84993113 441 133 C441 140.26 441 147.52 441 155 C438.504375 154.21625 436.00875 153.4325 433.4375 152.625 C405.65953832 144.30390736 376.84457744 146.95951961 351 160 C350.13375 160.41636719 349.2675 160.83273437 348.375 161.26171875 C322.79062856 174.2398374 304.48823523 198.13013047 295.59765625 225.07470703 C287.63291746 250.73235821 290.27727084 276.07089827 299.27563477 300.9855957 C299.87373433 302.64886484 300.4410557 304.32316709 301 306 C267.42782771 306.09162103 233.85568661 306.16207194 200.283417 306.20426132 C196.31695553 306.20926395 192.35049431 306.21444126 188.3840332 306.21972656 C187.5944057 306.2207758 186.8047782 306.22182505 185.9912226 306.22290608 C173.21752592 306.24029577 160.4439015 306.27182551 147.67024764 306.30861118 C134.55640512 306.34606065 121.44260036 306.36824431 108.32870656 306.37635398 C100.24131177 306.38183347 92.15412121 306.39911931 84.06678931 306.43166587 C77.85801002 306.45537462 71.64938538 306.45780974 65.44056702 306.45243073 C62.89894671 306.45352929 60.35731852 306.46146083 57.8157444 306.4768219 C54.33795666 306.4968067 50.86103343 306.49190736 47.38322449 306.48101807 C46.38416444 306.49266943 45.3851044 306.5043208 44.35576981 306.51632524 C31.53165456 306.40824736 20.19335857 300.79364733 11 292 C4.9771242 284.29071898 -0.12767399 275.26512938 -0.12304783 265.29111862 C-0.1250387 264.34234093 -0.12702957 263.39356323 -0.12908077 262.4160347 C-0.12616811 261.37742672 -0.12325544 260.33881874 -0.12025452 259.26873779 C-0.12111053 258.16543121 -0.12196655 257.06212463 -0.12284851 255.92538452 C-0.12450828 252.20382083 -0.1189726 248.48230179 -0.11352539 244.76074219 C-0.11266339 242.05693154 -0.11330791 239.35312174 -0.11389065 236.64931107 C-0.11442261 230.13051611 -0.10980233 223.61173492 -0.10338932 217.0929435 C-0.09619416 209.55366019 -0.09539483 202.01438516 -0.09460449 194.47509766 C-0.08935245 174.56672959 -0.07539136 154.65836459 -0.0625 134.75 C-0.041875 90.2825 -0.02125 45.815 0 0 Z " fill="#EEECED" transform="translate(0,130)"/>
<path d="M0 0 C0.1164862 3.72890255 0.18734576 7.45733514 0.25 11.1875 C0.28351563 12.24259766 0.31703125 13.29769531 0.3515625 14.38476562 C0.45018025 22.20022208 0.45018025 22.20022208 -1.80078125 26.19921875 C-4 28 -4 28 -7.4375 28.625 C-11 28 -11 28 -13.9375 26.0625 C-16.70477383 21.95351764 -16.47138774 18.80815498 -16 14 C-24.64459641 18.68352774 -32.54054708 23.52855409 -40 30 C-40.81984375 30.67546875 -41.6396875 31.3509375 -42.484375 32.046875 C-63.82738583 50.208319 -75.50363734 77.46485141 -78 105 C-80.16452246 137.83172768 -68.44804957 166.51451102 -47.19921875 191.08203125 C-38.34400243 200.46460537 -27.47643053 207.32752534 -16 213 C-16.05800781 212.13117188 -16.11601562 211.26234375 -16.17578125 210.3671875 C-16.59078657 199.76676588 -16.59078657 199.76676588 -13.9375 196.125 C-11 194 -11 194 -7.4375 193.875 C-3.72490617 195.09003071 -2.40262226 195.98797004 0 199 C0.45410156 201.56542969 0.45410156 201.56542969 0.390625 204.421875 C0.37773437 205.44667969 0.36484375 206.47148437 0.3515625 207.52734375 C0.31804687 208.59082031 0.28453125 209.65429688 0.25 210.75 C0.23195313 211.82894531 0.21390625 212.90789062 0.1953125 214.01953125 C0.14821415 216.68058788 0.082456 219.33984254 0 222 C-20.29504628 227.81199601 -46.6830163 217.80462651 -64.2890625 208.20703125 C-66.94998671 206.56925114 -69.48227633 204.84933775 -72 203 C-73.21816406 202.11248047 -73.21816406 202.11248047 -74.4609375 201.20703125 C-98.42376919 182.87584297 -114.01259902 157.1353434 -118.3125 127.125 C-119.9141784 112.73644159 -119.34589057 99.07881226 -116 85 C-115.73316406 83.82953125 -115.46632813 82.6590625 -115.19140625 81.453125 C-108.17728223 53.89541106 -88.84695011 30.13771497 -64.875 15.3125 C-44.57374651 3.26398132 -23.24237799 -0.25953028 0 0 Z " fill="#A9E4F9" transform="translate(409,277)"/>
<path d="M0 0 C-0.33 26.07 -0.66 52.14 -1 79 C-19.15 79 -37.3 79 -56 79 C-56.103125 72.173125 -56.20625 65.34625 -56.3125 58.3125 C-56.38078003 55.12267456 -56.38078003 55.12267456 -56.45043945 51.8684082 C-56.65337729 35.61400448 -53.76217009 24.04690005 -42.125 12.0703125 C-29.73435888 0.42910531 -17.06342939 0 0 0 Z " fill="#DE6A66" transform="translate(56,51)"/>
<path d="M0 0 C3.02508145 1.73602105 5.41790069 3.83580137 7 7 C7.08698228 9.91699274 7.11551923 12.80982548 7.09765625 15.7265625 C7.0962413 16.58937836 7.09482635 17.45219421 7.09336853 18.34115601 C7.08776188 21.1024723 7.07520827 23.86370812 7.0625 26.625 C7.05748586 28.4947905 7.0529228 30.36458226 7.04882812 32.234375 C7.03779029 36.82294777 7.0205212 41.41146023 7 46 C8.90072266 45.93619141 8.90072266 45.93619141 10.83984375 45.87109375 C14.25102271 45.75657808 14.74783693 45.79703948 17.5625 48.0625 C19.45683606 51.93353457 19.28636435 53.91390147 18 58 C14.41336038 61.17673795 11.6304866 61.10887728 7 61 C7.05220703 62.64548828 7.05220703 62.64548828 7.10546875 64.32421875 C7.13361865 65.77863045 7.16091752 67.2330588 7.1875 68.6875 C7.21263672 69.40873047 7.23777344 70.12996094 7.26367188 70.87304688 C7.32620972 75.43830933 6.98074275 78.46078852 4 82 C2.1328125 82.91796875 2.1328125 82.91796875 0.125 83.1875 C-0.53242187 83.30480469 -1.18984375 83.42210937 -1.8671875 83.54296875 C-4.75493035 82.80781077 -6.22559579 81.17945021 -8.00976562 78.85571289 C-9.78320524 75.53226256 -9.52862546 72.30245779 -9.3125 68.625 C-9.28994141 67.88894531 -9.26738281 67.15289062 -9.24414062 66.39453125 C-9.18572927 64.59546158 -9.09606337 62.79745247 -9 61 C-9.82725586 61.02094727 -10.65451172 61.04189453 -11.50683594 61.06347656 C-15.2544337 61.14661619 -19.00183749 61.19865531 -22.75 61.25 C-24.05195312 61.28351563 -25.35390625 61.31703125 -26.6953125 61.3515625 C-27.94570312 61.36445313 -29.19609375 61.37734375 -30.484375 61.390625 C-32.21252441 61.4220459 -32.21252441 61.4220459 -33.97558594 61.45410156 C-37.66117421 60.9007278 -38.80549584 59.96532415 -41 57 C-42.22968899 49.59806566 -39.34155738 45.34524914 -35.3125 39.3125 C-34.12040212 37.46398751 -32.92901732 35.615015 -31.73828125 33.765625 C-31.12162598 32.82009766 -30.5049707 31.87457031 -29.86962891 30.90039062 C-28.00975577 28.01513431 -26.20511447 25.10265601 -24.41796875 22.171875 C-23.84457764 21.23174561 -23.27118652 20.29161621 -22.68041992 19.32299805 C-21.58650404 17.5259754 -20.49413737 15.72800846 -19.40356445 13.92895508 C-9.81497513 -1.67528332 -9.81497513 -1.67528332 0 0 Z " fill="#AAE4F8" transform="translate(124,161)"/>
<path d="M0 0 C4.87549146 2.54836613 8.1402263 5.59122228 11.26171875 10.08984375 C11.85984375 10.93546875 12.45796875 11.78109375 13.07421875 12.65234375 C15.99436674 21.10540372 14.92696026 29.68427036 11.22265625 37.703125 C7.26501844 44.53832816 2.4747536 50.79850163 -2.27001953 57.10058594 C-4.19193293 59.7044686 -5.97627624 62.3757529 -7.73828125 65.08984375 C-6.86876831 65.09600708 -6.86876831 65.09600708 -5.98168945 65.10229492 C-3.33704016 65.13533652 -0.69466286 65.20598639 1.94921875 65.27734375 C3.31723633 65.28604492 3.31723633 65.28604492 4.71289062 65.29492188 C9.30863439 65.44532803 11.60017852 65.59389661 15.3671875 68.41796875 C17.26171875 71.08984375 17.26171875 71.08984375 17.88671875 74.65234375 C17.26171875 78.08984375 17.26171875 78.08984375 15.27539062 80.26928711 C11.22236012 82.71771943 8.06871572 82.68467226 3.41796875 82.65625 C2.5712561 82.66244858 1.72454346 82.66864716 0.85217285 82.67503357 C-0.93301243 82.68211845 -2.71826396 82.67898096 -4.50341797 82.66625977 C-7.23008036 82.65238548 -9.9533143 82.68649032 -12.6796875 82.72460938 C-14.41796959 82.72556058 -16.15625596 82.72370167 -17.89453125 82.71875 C-18.70611694 82.73200821 -19.51770264 82.74526642 -20.35388184 82.75892639 C-24.61026298 82.68912896 -26.27143981 82.45214301 -29.74731445 79.75463867 C-31.73828125 77.08984375 -31.73828125 77.08984375 -32.4375 73.82421875 C-31.45385154 68.57076666 -28.8367624 65.460094 -25.55078125 61.33984375 C-24.26679054 59.6648578 -22.98561659 57.98770947 -21.70703125 56.30859375 C-21.04960938 55.45136719 -20.3921875 54.59414062 -19.71484375 53.7109375 C-16.54097586 49.50211269 -13.53438431 45.18477195 -10.55078125 40.83984375 C-9.74120972 39.6801709 -9.74120972 39.6801709 -8.9152832 38.49707031 C-3.46894156 30.59039657 -3.46894156 30.59039657 -1.73828125 21.33984375 C-2.46862129 18.01340729 -2.46862129 18.01340729 -4.86328125 16.08984375 C-8.66614102 14.76710992 -10.87990973 14.9674084 -14.73828125 16.08984375 C-17.24126534 18.52517962 -18.52073181 20.53957164 -19.80078125 23.77734375 C-20.73828125 26.08984375 -20.73828125 26.08984375 -23.73828125 28.08984375 C-26.61328125 28.58984375 -26.61328125 28.58984375 -29.73828125 28.08984375 C-32.17382622 25.96521942 -33.39194743 24.87472603 -34.73828125 22.08984375 C-34.96022558 16.09734693 -32.3572412 11.6645803 -28.73828125 7.08984375 C-20.94016865 -0.9753275 -10.96066517 -3.64313122 0 0 Z " fill="#AAE4F8" transform="translate(65.73828125,162.91015625)"/>
<path d="M0 0 C0.8245166 -0.00241196 1.6490332 -0.00482391 2.49853516 -0.00730896 C4.23670272 -0.00633221 5.97490204 0.00702058 7.71289062 0.03198242 C10.36696496 0.06630235 13.01770914 0.05263225 15.671875 0.03320312 C17.36459744 0.04010194 19.05731133 0.04977465 20.75 0.0625 C21.53971191 0.05754013 22.32942383 0.05258026 23.14306641 0.04747009 C26.78892475 0.12504522 29.06186909 0.47338644 32.37255859 2.11767578 C35.2889683 5.77509961 35.09556804 8.81517127 35.0390625 13.375 C35.04384613 14.22312759 35.04862976 15.07125519 35.05355835 15.94508362 C35.05695608 17.73627581 35.04776231 19.52753012 35.02685547 21.31860352 C35.00011821 24.05431157 35.02658715 26.78590488 35.05859375 29.52148438 C35.05528898 31.26433194 35.04888134 33.00717696 35.0390625 34.75 C35.04918365 35.56472275 35.05930481 36.3794455 35.06973267 37.21885681 C34.98692649 41.25135899 34.65535671 43.20700393 32.37255859 46.64233398 C28.37281912 49.29308167 25.45232093 49.35323493 20.75 49.29296875 C19.5132251 49.3001442 19.5132251 49.3001442 18.25146484 49.3074646 C16.51332687 49.31085747 14.77512456 49.30169778 13.03710938 49.28076172 C10.38266175 49.25398354 7.73244175 49.28052621 5.078125 49.3125 C3.38540737 49.30919579 1.69269237 49.30278931 0 49.29296875 C-0.78971191 49.3030899 -1.57942383 49.31321106 -2.39306641 49.32363892 C-6.36276955 49.239576 -8.24170918 48.88495376 -11.62255859 46.62646484 C-14.2941572 42.62721007 -14.34944932 39.71564082 -14.2890625 35.00390625 C-14.29384613 34.17938965 -14.29862976 33.35487305 -14.30355835 32.50537109 C-14.30695122 30.76723312 -14.29779153 29.02903081 -14.27685547 27.29101562 C-14.25007729 24.636568 -14.27661996 21.986348 -14.30859375 19.33203125 C-14.30528954 17.63931362 -14.29888306 15.94659862 -14.2890625 14.25390625 C-14.29918365 13.46419434 -14.30930481 12.67448242 -14.31973267 11.86083984 C-14.23565841 7.89060118 -13.88023418 6.01125963 -11.62255859 2.62915039 C-7.61824223 -0.04289424 -4.71440138 -0.07914851 0 0 Z " fill="#CFEFFB" transform="translate(224.625,351.37109375)"/>
<path d="M0 0 C0.8245166 -0.00241196 1.6490332 -0.00482391 2.49853516 -0.00730896 C4.23670272 -0.00633221 5.97490204 0.00702058 7.71289062 0.03198242 C10.36696496 0.06630235 13.01770914 0.05263225 15.671875 0.03320312 C17.36459744 0.04010194 19.05731133 0.04977465 20.75 0.0625 C21.53971191 0.05754013 22.32942383 0.05258026 23.14306641 0.04747009 C26.78892475 0.12504522 29.06186909 0.47338644 32.37255859 2.11767578 C35.2889683 5.77509961 35.09556804 8.81517127 35.0390625 13.375 C35.04384613 14.22312759 35.04862976 15.07125519 35.05355835 15.94508362 C35.05695608 17.73627581 35.04776231 19.52753012 35.02685547 21.31860352 C35.00011821 24.05431157 35.02658715 26.78590488 35.05859375 29.52148438 C35.05528898 31.26433194 35.04888134 33.00717696 35.0390625 34.75 C35.04918365 35.56472275 35.05930481 36.3794455 35.06973267 37.21885681 C34.98692649 41.25135899 34.65535671 43.20700393 32.37255859 46.64233398 C28.37281912 49.29308167 25.45232093 49.35323493 20.75 49.29296875 C19.5132251 49.3001442 19.5132251 49.3001442 18.25146484 49.3074646 C16.51332687 49.31085747 14.77512456 49.30169778 13.03710938 49.28076172 C10.38266175 49.25398354 7.73244175 49.28052621 5.078125 49.3125 C3.38540737 49.30919579 1.69269237 49.30278931 0 49.29296875 C-0.78971191 49.3030899 -1.57942383 49.31321106 -2.39306641 49.32363892 C-6.36276955 49.239576 -8.24170918 48.88495376 -11.62255859 46.62646484 C-14.2941572 42.62721007 -14.34944932 39.71564082 -14.2890625 35.00390625 C-14.29384613 34.17938965 -14.29862976 33.35487305 -14.30355835 32.50537109 C-14.30695122 30.76723312 -14.29779153 29.02903081 -14.27685547 27.29101562 C-14.25007729 24.636568 -14.27661996 21.986348 -14.30859375 19.33203125 C-14.30528954 17.63931362 -14.29888306 15.94659862 -14.2890625 14.25390625 C-14.29918365 13.46419434 -14.30930481 12.67448242 -14.31973267 11.86083984 C-14.23565841 7.89060118 -13.88023418 6.01125963 -11.62255859 2.62915039 C-7.61824223 -0.04289424 -4.71440138 -0.07914851 0 0 Z " fill="#CFEFFB" transform="translate(224.625,275.37109375)"/>
<path d="M0 0 C0.87269531 -0.0038269 1.74539063 -0.00765381 2.64453125 -0.01159668 C4.48699092 -0.0143149 6.32948924 -0.00695994 8.171875 0.00976562 C10.99045934 0.03117752 13.80649485 0.00996199 16.625 -0.015625 C18.41667229 -0.01298171 20.20834299 -0.00785669 22 0 C22.84175781 -0.00809692 23.68351562 -0.01619385 24.55078125 -0.02453613 C28.14026092 0.03292638 30.39627944 0.17694295 33.52929688 2.015625 C35.70991556 5.74555443 35.57323519 9.06113432 35.53125 13.3125 C35.5350769 14.16299927 35.53890381 15.01349854 35.54284668 15.88977051 C35.54556458 17.68515204 35.53821182 19.48057324 35.52148438 21.27587891 C35.50007167 24.02205793 35.52128871 26.76562097 35.546875 29.51171875 C35.5442317 31.25781827 35.53910667 33.00391616 35.53125 34.75 C35.53934692 35.56988403 35.54744385 36.38976807 35.55578613 37.23449707 C35.49778481 40.7655359 35.33316696 42.96137078 33.52929688 46.046875 C29.74024065 48.27056823 26.32167236 48.10407045 22 48.0625 C21.12730469 48.0663269 20.25460937 48.07015381 19.35546875 48.07409668 C17.51300908 48.0768149 15.67051076 48.06945994 13.828125 48.05273438 C11.00954066 48.03132248 8.19350515 48.05253801 5.375 48.078125 C3.58332771 48.07548171 1.79165701 48.07035669 0 48.0625 C-0.84175781 48.07059692 -1.68351562 48.07869385 -2.55078125 48.08703613 C-6.14026092 48.02957362 -8.39627944 47.88555705 -11.52929688 46.046875 C-13.70991556 42.31694557 -13.57323519 39.00136568 -13.53125 34.75 C-13.5350769 33.89950073 -13.53890381 33.04900146 -13.54284668 32.17272949 C-13.54556458 30.37734796 -13.53821182 28.58192676 -13.52148438 26.78662109 C-13.50007167 24.04044207 -13.52128871 21.29687903 -13.546875 18.55078125 C-13.5442317 16.80468173 -13.53910667 15.05858384 -13.53125 13.3125 C-13.53934692 12.49261597 -13.54744385 11.67273193 -13.55578613 10.82800293 C-13.49778481 7.2969641 -13.33316696 5.10112922 -11.52929688 2.015625 C-7.74024065 -0.20806823 -4.32167236 -0.04157045 0 0 Z " fill="#CFEFFB" transform="translate(288,186.46875)"/>
<path d="M0 0 C1.2757489 -0.00786278 1.2757489 -0.00786278 2.57727051 -0.0158844 C4.37262888 -0.02229816 6.16802931 -0.02097595 7.96337891 -0.01245117 C10.70941943 -0.00393519 13.45338336 -0.03271932 16.19921875 -0.06445312 C17.94531188 -0.06606513 19.69140868 -0.06548762 21.4375 -0.0625 C22.25738403 -0.07373398 23.07726807 -0.08496796 23.92199707 -0.09654236 C27.45545856 -0.05335921 29.64370557 0.09761587 32.73217773 1.90209961 C34.95629154 5.68955832 34.81062208 9.11169421 34.78515625 13.43359375 C34.79445412 14.74263672 34.79445412 14.74263672 34.80393982 16.078125 C34.81103388 17.92056158 34.80787116 19.76306232 34.79516602 21.60546875 C34.78129536 24.42437615 34.81537952 27.23996651 34.85351562 30.05859375 C34.85446681 31.85026123 34.85260805 33.64193286 34.84765625 35.43359375 C34.86091446 36.27535156 34.87417267 37.11710937 34.88783264 37.984375 C34.82536313 41.91014077 34.70648252 43.81618064 32.22070312 46.96289062 C28.21611953 48.92479788 24.96427821 49.00983655 20.55859375 48.96484375 C19.73170547 48.96867065 18.9048172 48.97249756 18.0528717 48.97644043 C16.31054461 48.97915445 14.56817642 48.97182897 12.82592773 48.95507812 C10.1610233 48.93363216 7.49880613 48.95490927 4.83398438 48.98046875 C3.1380149 48.97782591 1.44204708 48.97270185 -0.25390625 48.96484375 C-1.04877945 48.97294067 -1.84365265 48.9810376 -2.66261292 48.98937988 C-5.99195962 48.93298349 -8.38128885 48.66636731 -11.28100586 46.97875977 C-13.55458623 43.1216279 -13.35362716 39.58231429 -13.3125 35.1796875 C-13.3163269 34.28242447 -13.32015381 33.38516144 -13.32409668 32.46070862 C-13.32681494 30.56697465 -13.31945971 28.67320308 -13.30273438 26.77954102 C-13.28129784 23.87756966 -13.30255114 20.97806692 -13.328125 18.07617188 C-13.3254822 16.23567161 -13.32035821 14.39517289 -13.3125 12.5546875 C-13.32059692 11.68589462 -13.32869385 10.81710175 -13.33703613 9.92198181 C-13.24572971 4.07286451 -13.24572971 4.07286451 -11.296875 1.390625 C-7.56684529 -0.02840804 -3.93549203 -0.01409124 0 0 Z " fill="#CFEFFB" transform="translate(143.78125,351.56640625)"/>
<path d="M0 0 C1.2757489 -0.00786278 1.2757489 -0.00786278 2.57727051 -0.0158844 C4.37262888 -0.02229816 6.16802931 -0.02097595 7.96337891 -0.01245117 C10.70941943 -0.00393519 13.45338336 -0.03271932 16.19921875 -0.06445312 C17.94531188 -0.06606513 19.69140868 -0.06548762 21.4375 -0.0625 C22.25738403 -0.07373398 23.07726807 -0.08496796 23.92199707 -0.09654236 C27.46585196 -0.05323219 29.64202219 0.09299102 32.73217773 1.91796875 C34.89017114 5.56979401 34.81020329 9.05516507 34.78515625 13.1796875 C34.79445412 14.45187889 34.79445412 14.45187889 34.80393982 15.74977112 C34.81103375 17.54093276 34.80787135 19.33216039 34.79516602 21.12329102 C34.78131214 23.85882447 34.81535859 26.59092797 34.85351562 29.32617188 C34.85446699 31.06901125 34.85260704 32.8118549 34.84765625 34.5546875 C34.86091446 35.36941025 34.87417267 36.184133 34.88783264 37.02354431 C34.8219295 41.05941674 34.50098555 43.00761947 32.22070312 46.44921875 C28.20492434 49.10376087 25.27474032 49.14136453 20.55859375 49.0625 C19.31826134 49.06611794 19.31826134 49.06611794 18.0528717 49.06980896 C16.3105081 49.0688323 14.56811277 49.05548186 12.82592773 49.03051758 C10.16087474 48.99615338 7.49912959 49.00987914 4.83398438 49.02929688 C3.13800674 49.02239944 1.44203765 49.01272798 -0.25390625 49 C-1.04877945 49.00495987 -1.84365265 49.00991974 -2.66261292 49.01502991 C-5.98919404 48.94425542 -8.38506337 48.66451882 -11.28100586 46.9765625 C-13.55558193 43.12107277 -13.35361744 39.58127378 -13.3125 35.1796875 C-13.3163269 34.28242447 -13.32015381 33.38516144 -13.32409668 32.46070862 C-13.32681494 30.56697465 -13.31945971 28.67320308 -13.30273438 26.77954102 C-13.28129784 23.87756966 -13.30255114 20.97806692 -13.328125 18.07617188 C-13.3254822 16.23567161 -13.32035821 14.39517289 -13.3125 12.5546875 C-13.32059692 11.68589462 -13.32869385 10.81710175 -13.33703613 9.92198181 C-13.24572971 4.07286451 -13.24572971 4.07286451 -11.296875 1.390625 C-7.56684529 -0.02840804 -3.93549203 -0.01409124 0 0 Z " fill="#CFEFFB" transform="translate(143.78125,275.56640625)"/>
<path d="M0 0 C1.2757489 -0.00786278 1.2757489 -0.00786278 2.57727051 -0.0158844 C4.37262888 -0.02229816 6.16802931 -0.02097595 7.96337891 -0.01245117 C10.70941943 -0.00393519 13.45338336 -0.03271932 16.19921875 -0.06445312 C17.94531188 -0.06606513 19.69140868 -0.06548762 21.4375 -0.0625 C22.25738403 -0.07373398 23.07726807 -0.08496796 23.92199707 -0.09654236 C27.45545856 -0.05335921 29.64370557 0.09761587 32.73217773 1.90209961 C34.95629154 5.68955832 34.81062208 9.11169421 34.78515625 13.43359375 C34.79445412 14.74263672 34.79445412 14.74263672 34.80393982 16.078125 C34.81103388 17.92056158 34.80787116 19.76306232 34.79516602 21.60546875 C34.78129536 24.42437615 34.81537952 27.23996651 34.85351562 30.05859375 C34.85446681 31.85026123 34.85260805 33.64193286 34.84765625 35.43359375 C34.86091446 36.27535156 34.87417267 37.11710937 34.88783264 37.984375 C34.82518863 41.92110675 34.71075964 43.81567402 32.20483398 46.96289062 C28.37174623 48.85075921 24.99608061 49.00895999 20.8125 48.96484375 C20.01017944 48.96867065 19.20785889 48.97249756 18.38122559 48.97644043 C16.69017273 48.97915427 14.99907752 48.97182999 13.30810547 48.95507812 C10.72658284 48.93365874 8.1478428 48.95489536 5.56640625 48.98046875 C3.91926472 48.97782538 2.27212491 48.9727002 0.625 48.96484375 C-0.14283813 48.97294067 -0.91067627 48.9810376 -1.70178223 48.98937988 C-5.15370259 48.92928471 -7.65458044 48.49530775 -10.76733398 46.97875977 C-13.76621746 43.18880217 -13.48217262 39.88782927 -13.41015625 35.1796875 C-13.41256821 34.28242447 -13.41498016 33.38516144 -13.41746521 32.46070862 C-13.41648703 30.56694105 -13.40310025 28.67314479 -13.37817383 26.77954102 C-13.34382503 23.87743337 -13.35752484 20.97836372 -13.37695312 18.07617188 C-13.37005579 16.2356641 -13.36038442 14.39516419 -13.34765625 12.5546875 C-13.35261612 11.68589462 -13.35757599 10.81710175 -13.36268616 9.92198181 C-13.24805016 4.07510857 -13.24805016 4.07510857 -11.29467773 1.390625 C-7.56575892 -0.02922558 -3.93466895 -0.01408829 0 0 Z " fill="#CFEFFB" transform="translate(62.78125,275.56640625)"/>
<path d="M0 0 C1.2757489 -0.00574036 1.2757489 -0.00574036 2.57727051 -0.01159668 C4.37265204 -0.01431458 6.16807324 -0.00696182 7.96337891 0.00976562 C10.70955793 0.03117833 13.45312097 0.00996129 16.19921875 -0.015625 C17.94531827 -0.0129817 19.69141616 -0.00785667 21.4375 0 C22.25738403 -0.00809692 23.07726807 -0.01619385 23.92199707 -0.02453613 C27.45234933 0.03345391 29.64795185 0.19725407 32.73217773 2.00195312 C34.95727931 5.78780505 34.81061613 9.210359 34.78515625 13.53125 C34.79445412 14.84029297 34.79445412 14.84029297 34.80393982 16.17578125 C34.81103388 18.01821783 34.80787116 19.86071857 34.79516602 21.703125 C34.78129536 24.5220324 34.81537952 27.33762276 34.85351562 30.15625 C34.85446681 31.94791748 34.85260805 33.73958911 34.84765625 35.53125 C34.86091446 36.37300781 34.87417267 37.21476562 34.88783264 38.08203125 C34.82536313 42.00779702 34.70648252 43.91383689 32.22070312 47.06054688 C28.21611953 49.02245413 24.96427821 49.1074928 20.55859375 49.0625 C19.73170547 49.0663269 18.9048172 49.07015381 18.0528717 49.07409668 C16.31054461 49.0768107 14.56817642 49.06948522 12.82592773 49.05273438 C10.1610233 49.03128841 7.49880613 49.05256552 4.83398438 49.078125 C3.1380149 49.07548216 1.44204708 49.0703581 -0.25390625 49.0625 C-1.04877945 49.07059692 -1.84365265 49.07869385 -2.66261292 49.08703613 C-6.00133608 49.03048091 -8.38051933 48.76701536 -11.28100586 47.06054688 C-13.52700079 43.2739712 -13.35414472 39.86064334 -13.3125 35.53125 C-13.3163269 34.65855469 -13.32015381 33.78585937 -13.32409668 32.88671875 C-13.3268149 31.04425908 -13.31945994 29.20176076 -13.30273438 27.359375 C-13.28132248 24.54079066 -13.30253801 21.72475515 -13.328125 18.90625 C-13.32548171 17.11457771 -13.32035669 15.32290701 -13.3125 13.53125 C-13.32059692 12.68949219 -13.32869385 11.84773438 -13.33703613 10.98046875 C-13.27957362 7.39098908 -13.13555705 5.13497056 -11.296875 2.00195312 C-7.56694557 -0.17866556 -4.25136568 -0.04198519 0 0 Z " fill="#CFEFFB" transform="translate(62.78125,351.46875)"/>
<path d="M0 0 C0.87411026 -0.00524185 1.74822052 -0.0104837 2.64881897 -0.0158844 C4.49723244 -0.02230683 6.34568677 -0.02096473 8.1940918 -0.01245117 C11.02141209 -0.00394759 13.84670786 -0.03268773 16.67382812 -0.06445312 C18.47005148 -0.0660654 20.26627841 -0.0654871 22.0625 -0.0625 C23.3298423 -0.07935097 23.3298423 -0.07935097 24.62278748 -0.09654236 C28.21377123 -0.05394634 30.48685663 0.08010921 33.63134766 1.89990234 C35.83400639 5.70596167 35.65126739 9.1429319 35.59375 13.46875 C35.59520523 14.34381699 35.59666046 15.21888397 35.59815979 16.12046814 C35.59650223 17.96714616 35.58495687 19.81383819 35.56420898 21.66040039 C35.53522186 24.48969013 35.54360883 27.31710964 35.55664062 30.14648438 C35.55040402 31.94141537 35.54201369 33.73634044 35.53125 35.53125 C35.53418564 36.3781691 35.53712128 37.2250882 35.54014587 38.09767151 C35.44571048 43.96215051 35.44571048 43.96215051 33.82594299 46.15614319 C31.72259385 47.71081839 30.63689115 47.81308334 28.04101562 47.82177734 C26.82460388 47.83596207 26.82460388 47.83596207 25.58361816 47.85043335 C24.71168823 47.84436066 23.8397583 47.83828796 22.94140625 47.83203125 C21.59338928 47.83633652 21.59338928 47.83633652 20.21813965 47.84072876 C18.31843434 47.8427699 16.41870805 47.83723653 14.51904297 47.82470703 C11.60857215 47.80865396 8.69949004 47.82455388 5.7890625 47.84375 C3.94400735 47.84176758 2.09895306 47.83792392 0.25390625 47.83203125 C-1.05398865 47.84114029 -1.05398865 47.84114029 -2.38830566 47.85043335 C-3.60471741 47.83624863 -3.60471741 47.83624863 -4.84570312 47.82177734 C-5.91467834 47.81819717 -5.91467834 47.81819717 -7.00524902 47.81454468 C-9.51858184 47.30984849 -10.3938751 46.48641385 -11.90234375 44.43359375 C-12.28329468 42.53649902 -12.28329468 42.53649902 -12.29052734 40.37695312 C-12.29998383 39.56601196 -12.30944031 38.7550708 -12.31918335 37.91955566 C-12.31311066 37.04762573 -12.30703796 36.1756958 -12.30078125 35.27734375 C-12.30365143 34.37866577 -12.30652161 33.47998779 -12.30947876 32.55407715 C-12.3115199 30.65437184 -12.30598653 28.75464555 -12.29345703 26.85498047 C-12.27740396 23.94450965 -12.29330388 21.03542754 -12.3125 18.125 C-12.31051758 16.27994485 -12.30667392 14.43489056 -12.30078125 12.58984375 C-12.30685394 11.71791382 -12.31292664 10.84598389 -12.31918335 9.94763184 C-12.30972687 9.13669067 -12.30027039 8.32574951 -12.29052734 7.49023438 C-12.28814056 6.77758423 -12.28575378 6.06493408 -12.28329468 5.33068848 C-11.03148494 -0.90318962 -5.14880513 -0.01784708 0 0 Z " fill="#CFEFFB" transform="translate(367.90234375,186.56640625)"/>
<path d="M0 0 C2.65552041 2.26537286 4.43531736 4.87063472 6 8 C6.11114598 9.78030616 6.15921253 11.56470513 6.17700195 13.34838867 C6.18983719 14.46682663 6.20267242 15.58526459 6.21589661 16.7375946 C6.22328354 17.95211807 6.23067047 19.16664154 6.23828125 20.41796875 C6.246353 21.6637117 6.25442474 22.90945465 6.26274109 24.19294739 C6.27659398 26.83513111 6.28760605 29.47718956 6.29516602 32.11938477 C6.30401271 34.82274 6.3248517 37.52557897 6.35668945 40.22875977 C6.39934644 44.12532082 6.41553515 48.02120321 6.42578125 51.91796875 C6.44328934 53.12237106 6.46079742 54.32677338 6.47883606 55.56767273 C6.46151832 62.28149923 6.07214422 66.56968621 2 72 C-1.86506577 75.63081936 -6.25673073 75.56171988 -11.3359375 75.41796875 C-15.61755235 74.74621979 -17.17286483 73.26207904 -20 70 C-21.76785927 66.3596812 -22.28514026 63.32745254 -22.4140625 59.30078125 C-22.45305664 58.18598389 -22.49205078 57.07118652 -22.53222656 55.92260742 C-22.5628418 54.73127197 -22.59345703 53.53993652 -22.625 52.3125 C-22.66077148 51.08184814 -22.69654297 49.85119629 -22.73339844 48.58325195 C-22.83688779 44.72235989 -22.92103541 40.86146613 -23 37 C-23.02868164 35.76475586 -23.05736328 34.52951172 -23.08691406 33.25683594 C-23.16159326 29.7336796 -23.21100236 26.21121519 -23.25 22.6875 C-23.27143066 21.61604736 -23.29286133 20.54459473 -23.31494141 19.44067383 C-23.34550084 12.36163765 -22.61667319 7.45774672 -18.25 1.6875 C-12.54347895 -2.59239079 -6.38837844 -2.77547528 0 0 Z " fill="#B3ACB4" transform="translate(328,14)"/>
<path d="M0 0 C4.73915184 6.31886912 4.34209624 12.80163795 4.25 20.375 C4.24137939 21.50131836 4.23275879 22.62763672 4.22387695 23.78808594 C4.18640759 27.44248095 4.1271223 31.09598909 4.0625 34.75 C4.04316406 36.02262695 4.02382812 37.29525391 4.00390625 38.60644531 C3.9387275 42.40502441 3.84912818 46.20216731 3.75 50 C3.71652466 51.77431396 3.71652466 51.77431396 3.68237305 53.58447266 C3.34889466 63.97123289 3.34889466 63.97123289 0.0625 68.75 C-3.49888891 72.05079948 -6.25468366 73.0250859 -11 73.1875 C-15.10389045 72.9906117 -17.811119 72.60052386 -20.9375 69.75 C-25.69771966 63.37407323 -25.52156175 57.58239809 -25.46875 49.80859375 C-25.4725769 48.56755386 -25.47640381 47.32651398 -25.48034668 46.04786682 C-25.48375483 42.76363712 -25.46773522 39.48017311 -25.4453125 36.19604492 C-25.43749999 34.18749869 -25.44529445 32.17965053 -25.45898438 30.17114258 C-25.48371882 26.2999647 -25.48069661 22.42981493 -25.46875 18.55859375 C-25.47684692 17.36471542 -25.48494385 16.1708371 -25.49328613 14.94078064 C-25.42169723 8.59226893 -25.26795545 4.54681998 -20.9375 -0.25 C-14.7581709 -6.03066271 -6.39681661 -4.89968932 0 0 Z " fill="#B3ACB4" transform="translate(131.9375,16.25)"/>
<path d="M0 0 C1.40892517 -0.00574036 1.40892517 -0.00574036 2.84631348 -0.01159668 C4.83000766 -0.01431576 6.8137377 -0.00695484 8.79736328 0.00976562 C11.83317016 0.03117539 14.86661046 0.00996393 17.90234375 -0.015625 C19.83073439 -0.01298172 21.75912356 -0.00785675 23.6875 0 C24.59487915 -0.00809692 25.5022583 -0.01619385 26.43713379 -0.02453613 C30.25662368 0.03227612 32.64802865 0.10484014 35.94726562 2.12695312 C37.89590665 5.48188614 37.75879062 7.70012567 37.34375 11.53125 C36.40429688 14.50854492 36.40429688 14.50854492 35.0625 17.51171875 C34.55783203 18.65906494 34.05316406 19.80641113 33.53320312 20.98852539 C32.97052671 22.23214845 32.40736203 23.47555069 31.84375 24.71875 C31.26393903 26.01964014 30.68518639 27.32100242 30.10742188 28.62280273 C28.86267614 31.42341742 27.61064881 34.22064985 26.35546875 37.01660156 C24.59618407 40.94821849 22.8768788 44.89618739 21.16833496 48.8500824 C19.74940382 52.1325192 18.32054001 55.41058311 16.89038086 58.68814087 C16.19623611 60.2835849 15.50560307 61.8805617 14.81860352 63.47909546 C13.84858001 65.73201809 12.86361266 67.9778406 11.875 70.22265625 C11.59205078 70.88913177 11.30910156 71.5556073 11.01757812 72.24227905 C9.11160523 76.51782684 6.9769093 79.56320239 3.34375 82.53125 C-0.50835127 82.59766554 -2.65473005 82.40354157 -5.59375 79.84375 C-7.22379248 76.29601048 -7.21499614 73.25134023 -6.00143433 69.51541138 C-5.04448751 67.15020731 -4.01967566 64.82711956 -2.96484375 62.50390625 C-2.58191666 61.6379332 -2.19898956 60.77196014 -1.80445862 59.87974548 C-0.57785171 57.11303318 0.66406242 54.35349646 1.90625 51.59375 C2.71517523 49.77322271 3.52312729 47.95226268 4.33007812 46.13085938 C8.88530967 35.8764645 13.55363462 25.6779487 18.34375 15.53125 C17.10286621 15.5626709 17.10286621 15.5626709 15.83691406 15.59472656 C12.0893163 15.67786619 8.34191251 15.72990531 4.59375 15.78125 C3.29179687 15.81476563 1.98984375 15.84828125 0.6484375 15.8828125 C-0.60195312 15.89570313 -1.85234375 15.90859375 -3.140625 15.921875 C-4.29272461 15.94282227 -5.44482422 15.96376953 -6.63183594 15.98535156 C-10.31338126 15.43258483 -11.46420397 14.49308249 -13.65625 11.53125 C-14.19360167 7.76978832 -14.33449041 5.56948668 -12.22851562 2.34570312 C-8.31926419 -0.41184781 -4.67595772 -0.04172553 0 0 Z " fill="#A9E4F8" transform="translate(222.65625,163.46875)"/>
<path d="M0 0 C3.5 0.5 3.5 0.5 6 1.9375 C8.28119117 5.83453491 7.42585819 9.26295463 6.5 13.5 C4.84949052 18.57432357 2.88219947 23.5099468 0.890625 28.45703125 C0.32055422 29.89168254 -0.24895523 31.32655699 -0.81793213 32.76164246 C-2.00755307 35.75421397 -3.20548088 38.74328923 -4.40917969 41.73022461 C-5.94779 45.55084168 -7.46267975 49.38036791 -8.97121811 53.21294117 C-10.13964163 56.17254521 -11.32171444 59.1265507 -12.50782013 62.07910728 C-13.07205727 63.48906192 -13.63178665 64.90082948 -14.18682098 66.31443214 C-14.96441356 68.2895523 -15.7604362 70.25623695 -16.56152344 72.22192383 C-17.00929138 73.34061356 -17.45705933 74.45930328 -17.918396 75.6118927 C-19.69504271 78.85616012 -21.4385469 80.46115355 -24.5 82.5 C-27 83.125 -27 83.125 -29.5 82.5 C-33.49906015 78.9356203 -33.49906015 78.9356203 -34.5 76.5 C-34.04397136 71.56772175 -32.88640898 67.3929546 -31.06323242 62.80200195 C-30.81591873 62.17342285 -30.56860504 61.54484375 -30.313797 60.8972168 C-29.50221103 58.8410221 -28.67940176 56.78955644 -27.85546875 54.73828125 C-27.28317678 53.30070251 -26.71126827 51.86297106 -26.13972473 50.4250946 C-24.94363561 47.42151054 -23.74173953 44.42033195 -22.53588867 41.4206543 C-20.99361382 37.58223486 -19.46788128 33.7374829 -17.94665051 29.89068317 C-16.77089593 26.92374916 -15.58551272 23.9607348 -14.39730263 20.99876976 C-13.83078381 19.58270227 -13.26746142 18.16535153 -12.70744896 16.74669838 C-11.92316352 14.76360399 -11.1258099 12.78626334 -10.32495117 10.80981445 C-9.87496262 9.68509232 -9.42497406 8.56037018 -8.96134949 7.40156555 C-6.70534603 2.92218401 -5.05084842 0.72154977 0 0 Z " fill="#AAE4F8" transform="translate(187.5,163.5)"/>
<path d="M0 0 C3.67235698 3.08811837 7.43333539 6.47290099 7.98828125 11.44921875 C8.17010008 17.69804498 7.63514409 21.33154604 3.75 26.3125 C-1.23555022 30.28059099 -5.32938474 30.9651845 -11.6640625 30.6875 C-15.50243922 30.13087739 -17.476226 29.01862097 -20.25 26.3125 C-23.59843297 21.66248179 -24.92220633 17.13756465 -24.63671875 11.41796875 C-23.79075852 6.81218526 -21.07813453 4.07852444 -17.75 1 C-12.28527473 -2.68868956 -5.82525688 -3.02465261 0 0 Z " fill="#CDCECE" transform="translate(409.25,373.6875)"/>
<path d="M0 0 C6.65094505 5.58164472 12.8420418 11.55233844 19.00878906 17.65869141 C20.25838447 18.89161247 21.51333622 20.11912703 22.7734375 21.34130859 C24.60862608 23.12176515 26.42684197 24.9180923 28.2421875 26.71875 C28.80565887 27.259552 29.36913025 27.800354 29.94967651 28.35754395 C33.32089812 31.74731792 34.91941044 34.16462627 35 39 C33.05756398 42.64206753 31.73325024 43.75961579 27.80371094 45.04785156 C23.0181514 44.98764812 21.82680482 43.73641315 18.55743408 40.46380615 C17.92488708 39.78996887 17.29234009 39.11613159 16.640625 38.421875 C15.96956726 37.73949768 15.29850952 37.05712036 14.6071167 36.35406494 C12.46855896 34.17078131 10.35944767 31.96138587 8.25 29.75 C6.81566681 28.27552749 5.3794876 26.80284834 3.94140625 25.33203125 C0.77379515 22.08584231 -2.37544692 18.82299758 -5.50946045 15.54437256 C-6.98891962 14.01148056 -8.48903926 12.50179357 -10 11 C-9.443125 10.608125 -8.88625 10.21625 -8.3125 9.8125 C-3.0742816 5.71008736 -3.0742816 5.71008736 0 0 Z " fill="#A9E3F8" transform="translate(416,393)"/>
<path d="M0 0 C3.4375 0.625 3.4375 0.625 5.62792969 2.57299805 C8.14396561 6.81651734 7.94289149 10.2400331 7.828125 15.08203125 C7.82246521 15.98499435 7.81680542 16.88795746 7.81097412 17.81828308 C7.78864895 20.69190303 7.73846018 23.56425928 7.6875 26.4375 C7.66742999 28.3899559 7.6491801 30.34243142 7.6328125 32.29492188 C7.58879682 37.07209878 7.51979626 41.8483354 7.4375 46.625 C6.4475 46.295 5.4575 45.965 4.4375 45.625 C-0.16454919 45.4765468 -4.05627079 45.68879765 -8.5625 46.625 C-8.68627604 40.87760242 -8.77692248 35.13098373 -8.8371582 29.38256836 C-8.86227281 27.42800377 -8.89637131 25.47353283 -8.93969727 23.51928711 C-9.00048434 20.70663332 -9.02873983 17.89522298 -9.05078125 15.08203125 C-9.07658768 14.21101273 -9.1023941 13.3399942 -9.12898254 12.44258118 C-9.13101194 8.03362169 -8.99347486 6.19493724 -6.25463867 2.57299805 C-3.5625 0.625 -3.5625 0.625 0 0 Z " fill="#AAE4F9" transform="translate(401.5625,327.375)"/>
<path d="M0 0 C1.11677492 0.94947559 2.23244654 1.90024897 3.34765625 2.8515625 C3.96906494 3.38088379 4.59047363 3.91020508 5.23071289 4.45556641 C7.2481965 6.21665393 9.14412108 8.06988592 11 10 C8.99778476 14.36626234 6.14705275 17.29279748 2.8125 20.6875 C2.26013672 21.28111328 1.70777344 21.87472656 1.13867188 22.48632812 C-1.84067894 25.52104435 -3.52886334 26.87606844 -7.7421875 27.984375 C-11 28 -11 28 -13.9375 26.5625 C-16.23647762 23.70619447 -16.66839081 21.87270366 -16.57250977 18.22631836 C-15.37457189 13.5678981 -11.44249745 10.64011592 -8 7.5 C-7.236875 6.77296875 -6.47375 6.0459375 -5.6875 5.296875 C-3.80846494 3.51179169 -1.91343186 1.74804214 0 0 Z " fill="#AAE4F9" transform="translate(474,304)"/>
<path d="M0 0 C2.5625 2.0625 2.5625 2.0625 4 5 C4.02136833 10.86204517 2.12286283 13.64711126 -1.8203125 17.640625 C-2.45710938 18.25421875 -3.09390625 18.8678125 -3.75 19.5 C-4.37132812 20.14453125 -4.99265625 20.7890625 -5.6328125 21.453125 C-10.20430499 25.9667505 -10.20430499 25.9667505 -13.7109375 26.11328125 C-16.21404519 24.89589952 -17.90917741 23.65754109 -19.875 21.6875 C-20.79925781 20.79611328 -20.79925781 20.79611328 -21.7421875 19.88671875 C-23 18 -23 18 -22.75854492 16.09790039 C-21.35524775 12.21681492 -18.28481882 9.6473751 -15.4375 6.75 C-14.84130859 6.1003125 -14.24511719 5.450625 -13.63085938 4.78125 C-9.11045778 0.16879307 -6.4508553 -0.96149112 0 0 Z " fill="#82D9F8" transform="translate(341,445)"/>
<path d="M0 0 C4.36626234 2.00221524 7.29279748 4.85294725 10.6875 8.1875 C11.28111328 8.73986328 11.87472656 9.29222656 12.48632812 9.86132812 C15.53718108 12.85652128 16.8788254 14.5368544 17.98828125 18.77734375 C18 22 18 22 16.5 24.375 C12.92221766 26.70055852 11.33222269 27.3493728 7 27 C3.28334002 24.37301054 0.18496037 21.23717284 -3 18 C-3.66257812 17.40703125 -4.32515625 16.8140625 -5.0078125 16.203125 C-6.6875 14.6875 -6.6875 14.6875 -9 12 C-8.79460776 8.15284533 -6.62509858 6.3096177 -3.9375 3.75 C-3.20402344 3.04359375 -2.47054688 2.3371875 -1.71484375 1.609375 C-1.14894531 1.07828125 -0.58304687 0.5471875 0 0 Z " fill="#82D9F8" transform="translate(327,305)"/>
<path d="M0 0 C3.18541413 2.31639134 5.77227001 5.11287072 8.4375 8 C9.16904297 8.763125 9.90058594 9.52625 10.65429688 10.3125 C12.4530237 12.19352151 14.23340018 14.08885731 16 16 C15.09066991 17.27609323 14.17217147 18.54565553 13.25 19.8125 C12.73953125 20.52019531 12.2290625 21.22789062 11.703125 21.95703125 C9.95814383 24.05020821 8.2873556 25.52623633 6 27 C5.34 27 4.68 27 4 27 C2.5546875 25.53125 2.5546875 25.53125 0.875 23.5 C-1.72112285 20.39558362 -4.42451118 17.69724044 -7.4375 15 C-10.1853307 12.29485404 -11.55722889 10.59289982 -11.75 6.6875 C-11 3 -11 3 -9.4375 1 C-5.87606136 -0.46110303 -3.85744044 -0.55995103 0 0 Z " fill="#AAE4F9" transform="translate(469,445)"/>
<path d="M0 0 C1.06992187 0.01289063 2.13984375 0.02578125 3.2421875 0.0390625 C4.35335938 0.07257813 5.46453125 0.10609375 6.609375 0.140625 C7.73601562 0.15867187 8.86265625 0.17671875 10.0234375 0.1953125 C12.80244679 0.24241435 15.58101869 0.31415648 18.359375 0.390625 C18.359375 5.340625 18.359375 10.290625 18.359375 15.390625 C14.62899653 15.5256749 10.90351088 15.62477632 7.171875 15.703125 C6.11677734 15.74501953 5.06167969 15.78691406 3.97460938 15.83007812 C-3.86586275 15.95374488 -3.86586275 15.95374488 -7.84375 13.0625 C-10.03897485 9.79829609 -10.3790174 8.24667421 -9.640625 4.390625 C-6.67583342 0.5861246 -4.76075224 -0.1012926 0 0 Z " fill="#A9E4F9" transform="translate(493.640625,380.609375)"/>
<path d="M0 0 C3.75076665 -0.10784952 7.49843949 -0.18724988 11.25 -0.25 C12.31347656 -0.28351563 13.37695312 -0.31703125 14.47265625 -0.3515625 C15.49746094 -0.36445313 16.52226562 -0.37734375 17.578125 -0.390625 C18.99206543 -0.4220459 18.99206543 -0.4220459 20.43457031 -0.45410156 C23.78810871 0.13950154 24.94095645 1.33640135 27 4 C27.5625 7.5 27.5625 7.5 27 11 C24.77601962 13.68018149 23.00932819 14.87085701 19.52709961 15.31640625 C16.57065871 15.3939991 13.64324166 15.34833561 10.6875 15.25 C9.14739258 15.22292969 9.14739258 15.22292969 7.57617188 15.1953125 C5.05037929 15.14832101 2.52506863 15.07658169 0 15 C0 10.05 0 5.1 0 0 Z " fill="#81D9F8" transform="translate(291,381)"/>
<path d="M0 0 C6 1 6 1 8.4375 3.0625 C10.09744234 6.1831916 10.44783581 8.1168054 9.8203125 11.6015625 C8.09167051 16.6557824 4.94193214 24.52903393 0 27 C0 18.09 0 9.18 0 0 Z " fill="#F6F6F8" transform="translate(55,177)"/>
<path d="M0 0 C4.95 0 9.9 0 15 0 C15 2.31 15 4.62 15 7 C12.8765984 7.83739781 10.7512272 8.66980283 8.625 9.5 C7.44164062 9.9640625 6.25828125 10.428125 5.0390625 10.90625 C2 12 2 12 0 12 C0 8.04 0 4.08 0 0 Z " fill="#81D9F8" transform="translate(394,278)"/>
<path d="M0 0 C0.33 0 0.66 0 1 0 C1 5.28 1 10.56 1 16 C-2.3 16 -5.6 16 -9 16 C-7.63498381 12.33357971 -5.97203048 9.08922939 -3.9375 5.75 C-3.41027344 4.87859375 -2.88304688 4.0071875 -2.33984375 3.109375 C-1 1 -1 1 0 0 Z " fill="#F5F6F8" transform="translate(114,190)"/>
<path d="M0 0 C5.46737191 1.74807129 10.75824848 3.65794081 16 6 C16 6.66 16 7.32 16 8 C10.71694183 9.69057861 5.32900731 9.29188056 0 8 C0 5.36 0 2.72 0 0 Z " fill="#88DAF8" transform="translate(393,491)"/>
<path d="M0 0 C6.0018137 -0.21824777 11.19233704 0.4943096 17 2 C13.51783717 4.05137315 10.22724343 4.56818592 6.25 5.125 C5.07953125 5.29257812 3.9090625 5.46015625 2.703125 5.6328125 C1.81109375 5.75398438 0.9190625 5.87515625 0 6 C0 4.02 0 2.04 0 0 Z " fill="#ACE4F8" transform="translate(409,278)"/>
</svg>
